<svg width="24" height="24" viewBox="0 0 24 24" fill="none" xmlns="http://www.w3.org/2000/svg">
<path id="Layer01" d="M14 12C14 13.1046 13.1046 14 12 14C10.8954 14 10 13.1046 10 12C10 10.8954 10.8954 10 12 10C13.1046 10 14 10.8954 14 12Z" fill="#0D0D0D"/>
<path id="Layer02" fill-rule="evenodd" clip-rule="evenodd" d="M3 12C3 14.2728 3.94193 16.5032 5.71196 18.2978C6.09978 18.691 6.09543 19.3241 5.70223 19.712C5.30902 20.0998 4.67587 20.0954 4.28805 19.7022C2.18112 17.5661 1 14.8427 1 12C1 9.15729 2.18112 6.43389 4.28805 4.29777C4.67587 3.90457 5.30902 3.90022 5.70223 4.28804C6.09543 4.67587 6.09978 5.30902 5.71195 5.70223C3.94193 7.49678 3 9.72715 3 12ZM8.80201 14.404C8.27734 13.6971 7.99902 12.8569 7.99902 12C7.99902 11.1431 8.27734 10.3029 8.80201 9.596C9.13117 9.15252 9.0385 8.52617 8.59502 8.19701C8.15154 7.86785 7.5252 7.96052 7.19604 8.404C6.41969 9.44998 5.99902 10.7067 5.99902 12C5.99902 13.2933 6.41969 14.55 7.19604 15.596C7.5252 16.0395 8.15154 16.1321 8.59502 15.803C9.0385 15.4738 9.13117 14.8475 8.80201 14.404ZM15.197 14.404C15.7217 13.6971 16 12.8569 16 12C16 11.1431 15.7217 10.3029 15.197 9.596C14.8679 9.15252 14.9605 8.52617 15.404 8.19701C15.8475 7.86785 16.4738 7.96052 16.803 8.404C17.5793 9.44998 18 10.7067 18 12C18 13.2933 17.5793 14.55 16.803 15.596C16.4738 16.0395 15.8475 16.1321 15.404 15.803C14.9605 15.4738 14.8679 14.8475 15.197 14.404ZM18.2871 18.2978C20.0571 16.5032 20.999 14.2728 20.999 12C20.999 9.72715 20.0571 7.49678 18.2871 5.70223C17.8992 5.30902 17.9036 4.67587 18.2968 4.28804C18.69 3.90022 19.3232 3.90457 19.711 4.29777C21.8179 6.43389 22.999 9.15729 22.999 12C22.999 14.8427 21.8179 17.5661 19.711 19.7022C19.3231 20.0954 18.69 20.0998 18.2968 19.712C17.9036 19.3241 17.8992 18.691 18.2871 18.2978Z" fill="#0D0D0D"/>
</svg>
