<svg width="24" height="24" viewBox="0 0 24 24" fill="none" xmlns="http://www.w3.org/2000/svg">
<path fill-rule="evenodd" clip-rule="evenodd" d="M19 11C19 11.5523 19.4477 12 20 12C20.5523 12 21 11.5523 21 11V10.8478C21 8.11075 19.7088 5.53404 17.5163 3.89561C17.0739 3.56501 16.4472 3.65565 16.1166 4.09805C15.786 4.54046 15.8767 5.1671 16.3191 5.4977C18.0064 6.75857 19 8.74149 19 10.8478V11ZM4 12C4.55228 12 5 11.5523 5 11V10.8478C5 8.74149 5.99363 6.75857 7.68091 5.4977C8.12331 5.1671 8.21395 4.54046 7.88335 4.09805C7.55275 3.65565 6.92611 3.56501 6.4837 3.89561C4.29117 5.53404 3 8.11075 3 10.8478V11C3 11.5523 3.44772 12 4 12ZM7.10555 19.5528C7.35253 19.0588 7.95321 18.8586 8.44719 19.1055C10.6837 20.2238 13.3162 20.2238 15.5528 19.1056C16.0467 18.8586 16.6474 19.0588 16.8944 19.5528C17.1414 20.0468 16.9412 20.6474 16.4472 20.8944C13.6476 22.2942 10.3523 22.2942 7.55276 20.8944C7.05878 20.6474 6.85856 20.0467 7.10555 19.5528Z" fill="black"/>
<path id="Layer02" fill-rule="evenodd" clip-rule="evenodd" d="M13 5C13 5.55228 12.5523 6 12 6C11.4477 6 11 5.55228 11 5C11 4.44772 11.4477 4 12 4C12.5523 4 13 4.44772 13 5ZM15 5C15 6.65685 13.6569 8 12 8C10.3431 8 9 6.65685 9 5C9 3.34315 10.3431 2 12 2C13.6569 2 15 3.34315 15 5ZM5 17C5.55228 17 6 16.5523 6 16C6 15.4477 5.55228 15 5 15C4.44772 15 4 15.4477 4 16C4 16.5523 4.44772 17 5 17ZM5 19C6.65685 19 8 17.6569 8 16C8 14.3431 6.65685 13 5 13C3.34315 13 2 14.3431 2 16C2 17.6569 3.34315 19 5 19ZM19 17C19.5523 17 20 16.5523 20 16C20 15.4477 19.5523 15 19 15C18.4477 15 18 15.4477 18 16C18 16.5523 18.4477 17 19 17ZM19 19C20.6569 19 22 17.6569 22 16C22 14.3431 20.6569 13 19 13C17.3431 13 16 14.3431 16 16C16 17.6569 17.3431 19 19 19Z" fill="black"/>
</svg>
