#define src2_width 32
#define src2_height 48
static char src2_bits[] = {
 0xa7,0x01,0xc0,0x03,0x40,0x9b,0x80,0x08,0x18,0x00,0x00,0x00,0x48,0x00,0x00,
 0x00,0xbb,0xbb,0xbb,0xbb,0xee,0xee,0xee,0xee,0x00,0x00,0x00,0x00,0xfe,0xff,
 0xff,0xff,0x0d,0x00,0x0d,0x00,0x20,0x00,0x20,0x00,0x80,0xed,0xb7,0x08,0xe8,
 0x61,0x54,0x08,0x04,0x00,0x00,0x00,0x00,0x00,0x00,0x00,0x44,0x68,0xa2,0x02,
 0x00,0x00,0x00,0x00,0xff,0xff,0xff,0xff,0xff,0xff,0xff,0xff,0xff,0xff,0xff,
 0xff,0xff,0xff,0xff,0xff,0xff,0xff,0xff,0xff,0xff,0xff,0xff,0xff,0xff,0xff,
 0xff,0xff,0xff,0xff,0xff,0xff,0xff,0xff,0xff,0xff,0xff,0xff,0xff,0xff,0xff,
 0xff,0xff,0xff,0xff,0xff,0xff,0xff,0xff,0xff,0xff,0xff,0xff,0xff,0xff,0xff,
 0xff,0xff,0xff,0xff,0xff,0xff,0xff,0xff,0x00,0x00,0x00,0x00,0x00,0x00,0x00,
 0x00,0x00,0x00,0x00,0x00,0x00,0x00,0x00,0x00,0x00,0x00,0x00,0x00,0x00,0x00,
 0x00,0x00,0x00,0x00,0x00,0x00,0x00,0x00,0x00,0x00,0x00,0x00,0x00,0x00,0x00,
 0x00,0x00,0x00,0x00,0x00,0x00,0x00,0x00,0x00,0x00,0x00,0x00,0x00,0x00,0x00,
 0x00,0x00,0x00,0x00,0x00,0x00,0x00,0x00,0x00,0x00,0x00,0x00 };
