P1
16 6
1 0 0 0 0 0 0 0 0 1 0 0 0 0 0 1
10 00 00 00 01 00 00 01
1000 0000 0100 0001
100000000 1000001
1000000001000001
10 000 0000 10000 01
