/* XPM */
static char * ddd_xpm[] = {
/* $Id: ddd.xpm,v 1.5 1999/08/19 11:30:07 andreas Exp $
 * DDD Logo.  Copyright (C) 1997 TU Braunschweig, Germany.
 * For details on DDD, see `http://www.gnu.org/software/ddd/'.
 * width height ncolors chars_per_pixel */
"  48    48     8       1",
/* Colors */
"       c None      m None  g None   g4 None   s Background ",
". c black     m black g black  g4 black  s Legs       ",
"X c grey      m white g grey   g4 grey   s Body       ",
"- c grey      m white g grey   g4 grey   s Border     ",
"o      c #000040   m black g grey25 g4 grey25 s Handle1    ",
"O c blue4     m black g grey25 g4 grey25 s Handle2    ",
"+ c white     m white g white  g4 white  s Light      ",
"*      c DarkGreen m black g grey25 g4 grey25 s Eye        ",
/* Pixels */
"                .            .                  ",    
"                .           ..                  ",    
"                 .          .                   ",    
"                 ..        .                    ",    
"   ..             ..      ..                    ",    
"     ..            .     .               .      ",    
"       .            . . .              ..       ",    
"        .            .X.              .         ",    
"         .          *.X.*           ..          ",    
"         ..     ..  .XXX.  ..     ...           ",    
"          .     .X...XXX...X.     .             ",    
"          ..   ..XXX.XXX.XXX.   ..              ",    
"            .....XXXX...XXXX.   .               ",    
"             .. ..XXXXXXXXX.. ..                ",    
"                ...XXXXXXX.....                 ",    
"                  .........                     ",
"                  .XXXXXXX.                     ",
"                .....XXX.....                   ",
"               .XXXXXoOOOOOOX.  ...             ",
"        ..    ..XXXoOOO-----OOO.....            ",
"       .........XXoO-----..----O   ..           ",
"      ..    ..X..oO--.........--O   ..          ",
"      .    ..XXXoO--..++.......--O  ..          ",
"     ..    .XXXXO-XXX+++XXXXXXXXX-O  .          ",
"     ..   .....oO-XX+++XXXXXXXXXXX-O  ..        ",
"    ..    .XXXoO--XX++XXXXXXXXXXXX-O   ..       ",
"   ..    ..XXXoO-..+++............-O     ..     ",
"   .   .. .XXoO--..++.............-OO      ..   ",
"  .   ... ...oO--..................-O           ",
"..    .   .XXoO-XXXXXXXXXXXXXXXXXXX-O           ",
"     ..   .XXoO-XXXXXXXXXXXXXXXXXXX-O           ",
"     ..    .XoO-XXXXXXXXXXXXXXXXXXX-O.          ",
"     .     ...oO-.................-O ..         ",
"     .     .XXoO-.................-O ..         ",
"     .     ..XoO-.................-O  ..        ",
"     .      ...oO-XXXXXXXXXXXXXXX-OOO  .        ",
"     ..      .XoOO-XXXXXXXXXXXXX-OOOOO .        ",
"     ..      ..XoOO---.......---OOOOOO .        ",
"     ..       ....oOO---...----OOOOOOOO         ",
"      .        .XX..oOO-----OOOOOOOOOOO         ",
"     .          .....OOOOOOOOooOOOOOOOOO        ",
"     .            .XXooooooOo  oOOOOOOOOO       ",
"    .              .XXX.         ooOOOOOOO      ",
"  ..                ...            ooOOOOOO     ",
"  .                                 ooOOOOOO    ",
"                                     ooOOOOOO   ",
"                                      ooOOOOOO  ",
"                                       ooOOOOOO "};
