/* XPM */
static char *dummy[]={
"8 8 777 2",
"#R c none",
"fn c #000001",
".e c #000069",
".f c #00006d",
".g c #00006e",
"#d c #0042b4",
"aJ c #010101",
"g0 c #010102",
"dr c #010202",
"gd c #010203",
"#J c #0157bb",
"e. c #020202",
"du c #020304",
"fR c #030303",
"jJ c #040404",
"hf c #040608",
"fE c #040609",
"cO c #04070a",
"k# c #050505",
"gC c #050709",
"ka c #060606",
"br c #06080a",
"dY c #06090d",
"hI c #070707",
"in c #07090b",
"cL c #070a0e",
"cd c #070b0f",
"e0 c #080808",
"gZ c #080b0e",
"eu c #080b0f",
"dz c #080c10",
"hD c #090909",
"fq c #090d11",
"cH c #090e13",
"jB c #0a0a0a",
"#U c #0a0d0f",
"a4 c #0a0d10",
"g3 c #0a0d11",
"fu c #0a0f14",
"cj c #0a1016",
"kb c #0b0b0b",
"#n c #0b0d0f",
"a1 c #0b0e10",
"g8 c #0b0f13",
"f4 c #0b0f14",
"hE c #0c0c0c",
"bf c #0c0f12",
".X c #0c28a0",
"bT c #0d0d0d",
"ax c #0d1014",
"hr c #0d1217",
"dH c #0d141b",
"jy c #0e0e0e",
"aW c #0e1115",
"eH c #0e141b",
"bE c #0f0f0f",
"ar c #0f1317",
"g5 c #0f1419",
"hg c #0f151a",
"fh c #0f151c",
"dJ c #0f171f",
"gI c #101010",
".z c #101094",
"h. c #10161b",
"gm c #10161c",
"eL c #10171f",
"hK c #111111",
"at c #11161b",
"fC c #111820",
"dA c #111922",
"aj c #1163c4",
"bJ c #121212",
"#Z c #12161a",
"ba c #12171c",
"ho c #12181e",
"jK c #131313",
"iq c #13191d",
"cA c #131e2a",
"c7 c #141414",
"dR c #141e29",
"jr c #151515",
"aA c #151a1f",
"hq c #151c23",
"fl c #151e28",
"eV c #151e29",
"d4 c #161616",
"hw c #161e25",
"jk c #171717",
"bs c #171d23",
"g9 c #171f27",
"eC c #17212b",
"b9 c #172432",
"d5 c #181818",
"as c #181e24",
"bn c #181f25",
"bS c #191919",
"gr c #19232d",
"ed c #1a1a1a",
".d c #1a1a6e",
"gB c #1a242e",
"eK c #1a2531",
"dQ c #1a2633",
"hL c #1b1b1b",
"g1 c #1b242d",
"g# c #1b252f",
"eJ c #1b2734",
"d1 c #1b2937",
"bW c #1c1c1c",
"gW c #1c262f",
"ci c #1c2b3b",
"cs c #1c2c3c",
"e# c #1d1d1d",
"#3 c #1d232a",
"f8 c #1d2833",
"fI c #1d2936",
"eO c #1d2a38",
"cw c #1d2e3f",
"jR c #1e1e1e",
"a2 c #1e262e",
"eP c #1e2b39",
"dE c #1e2d3d",
"cF c #1e2f41",
"aO c #1e6ec9",
"c4 c #1f1f1f",
"gx c #1f2a36",
"c# c #1f3043",
"j2 c #202020",
"bk c #202931",
"ht c #202c36",
"eF c #202f3e",
"b7 c #203245",
"cB c #203246",
"hG c #212121",
"aE c #212932",
"bp c #212a32",
"hl c #212d38",
"cc c #213347",
".M c #214eb7",
"hF c #222222",
"#7 c #222a32",
"fw c #223040",
"eU c #223141",
"jC c #232323",
"bb c #232c35",
"ga c #23303d",
"cv c #23364a",
"cn c #23364b",
"jl c #242424",
"gj c #243240",
"cm c #24374c",
"c. c #24384d",
"bF c #252525",
"be c #252f39",
"gt c #253341",
"dU c #253649",
".Y c #256cc9",
"jG c #262626",
"h8 c #26333d",
"hb c #263440",
"gs c #263443",
"cr c #263b51",
"cW c #272727",
"aC c #27313b",
"a9 c #27313c",
"fk c #273748",
"eR c #27384b",
"cq c #273d55",
"jV c #282828",
"#5 c #28313b",
"b0 c #2877ce",
"gL c #292929",
"#Y c #29323c",
"hu c #293744",
"fK c #293a4d",
"jP c #2a2a2a",
"#w c #2a323b",
"bg c #2a3540",
"dF c #2a3f55",
"jn c #2b2b2b",
"a6 c #2b3641",
"jY c #2c2c2c",
"h5 c #2c3b47",
"hp c #2c3c4a",
"gp c #2c3c4d",
"cx c #2c445e",
"bU c #2d2d2d",
"h# c #2d3e4c",
"dS c #2d435b",
"e5 c #2e2e2e",
"cG c #2e4762",
"jF c #2f2f2f",
"aG c #2f3b48",
"gU c #2f3f4e",
"ck c #2f4966",
"j0 c #303030",
"a0 c #303d4a",
"he c #304251",
"cQ c #307ace",
"e4 c #313131",
"ew c #31465d",
"dW c #314862",
"ce c #314b68",
"jm c #323232",
"bm c #323f4d",
"k. c #333333",
"e3 c #343434",
"hi c #344757",
"eT c #344b64",
"b8 c #34506f",
"dj c #347fd1",
"bX c #353535",
"f9 c #35485c",
"ac c #363636",
"#V c #36434f",
"fv c #364c64",
"dV c #36506d",
"c2 c #373737",
"ev c #37506a",
"bI c #383838",
"bw c #384655",
"h4 c #384b5a",
"hk c #384c5d",
"ea c #393939",
"bh c #394857",
"gX c #394d5f",
"#e c #3981d2",
"e6 c #3a3a3a",
"eS c #3a546f",
"em c #3a81d2",
"#F c #3b3b3b",
"eQ c #3b5571",
"dT c #3b5776",
"cI c #3b5c7f",
"gJ c #3c3c3c",
"hX c #3c5060",
"fi c #3c546f",
"gG c #3d3d3d",
"jv c #3e3e3e",
"az c #3e4e5e",
"fL c #3e5772",
"bK c #3f3f3f",
"gD c #3f576f",
"fJ c #3f5874",
"d2 c #3f86d5",
"jx c #404040",
"#8 c #404e5d",
"bv c #405161",
"cf c #406389",
"jL c #414141",
"iG c #415561",
"im c #415663",
"gz c #415971",
"et c #415d7c",
"cz c #41658c",
"f# c #418ad7",
"jT c #424242",
"gy c #425b74",
"fs c #425d7a",
"#K c #4288d4",
"jQ c #434343",
"eX c #438cda",
"j8 c #444444",
".L c #44449a",
"eZ c #454545",
"#s c #455362",
"fx c #45617f",
"cK c #456b94",
"aP c #458cd5",
"ab c #464646",
".n c #46469f",
"aH c #46586a",
"gV c #465f74",
"d0 c #46678c",
"c9 c #474747",
"aF c #47596c",
"a3 c #475a6d",
"ex c #476687",
"jU c #484848",
"by c #485b6e",
"gq c #48627d",
"dI c #486b91",
"cC c #48709b",
"js c #494949",
"#2 c #495a6b",
"ih c #49606f",
"hm c #49637a",
"gk c #49647f",
"j7 c #4a4a4a",
"dt c #4a6e94",
"ak c #4a8dd7",
"b1 c #4a90db",
"c1 c #4b4b4b",
"bx c #4b5f72",
"fr c #4b698a",
"dG c #4b6e95",
"co c #4b75a2",
"fW c #4b91db",
"bD c #4c4c4c",
"hc c #4c687f",
"j6 c #4d4d4d",
"#Q c #4d5f71",
"ik c #4d6676",
"hH c #4e4e4e",
"#0 c #4e5f72",
"aD c #4e6277",
"b. c #4e6377",
"gN c #4e91dc",
"c0 c #4f4f4f",
"bj c #4f6378",
"dZ c #4f759e",
"cD c #4f7aa9",
"hN c #4f8dcd",
"kd c #505050",
"#S c #506275",
"#6 c #506376",
"ge c #506e8c",
"af c #515151",
"b# c #51667b",
"dk c #5195df",
"cT c #525252",
".c c #525280",
"bq c #52677d",
"iH c #526b79",
"fj c #527397",
"eW c #52769d",
"dy c #527aa5",
"hJ c #535353",
"#x c #536476",
"eG c #53789f",
"jM c #545454",
"#r c #546577",
"bz c #546a80",
"dM c #547ca8",
"fP c #5499e2",
"jp c #555555",
"iK c #556f7e",
"bM c #565656",
"fB c #56799f",
"dC c #567fab",
"gE c #569be2",
"cU c #575757",
"h7 c #57748b",
"gc c #577797",
"fN c #577ba1",
"dx c #5780ad",
"cg c #5787bb",
"i4 c #585858",
"iF c #587483",
"hy c #587792",
"g2 c #587893",
"fy c #587ca3",
"eA c #587ea7",
"jW c #595959",
"bu c #597087",
"ia c #5984b2",
"ae c #5a5a5a",
"#t c #5a6c7f",
"bd c #5a7189",
"ij c #5a7789",
"eI c #5a81ab",
"bR c #5b5b5b",
"ch c #5b8dc3",
"en c #5b9be1",
"ke c #5c5c5c",
"cP c #5c8fc5",
"j5 c #5d5d5d",
"iN c #5d7fa0",
"gl c #5d80a3",
"fp c #5d83ac",
"cl c #5d8fc6",
"b2 c #5d9de6",
"c8 c #5e5e5e",
"hh c #5e7f9c",
"hn c #5e809d",
"i3 c #5f5f5f",
"#1 c #5f758c",
"a8 c #5f7890",
"g7 c #5f819e",
"cJ c #5f93cc",
"jz c #606060",
"ct c #6094cd",
"bO c #616161",
"eN c #618cb9",
"jH c #626262",
"iW c #627c8d",
"hd c #6285a3",
"ey c #628dbb",
"dO c #6290c4",
"ca c #6297d1",
"jI c #636363",
"eM c #638fbd",
"jN c #646464",
"fH c #648db9",
"eE c #648fbe",
"cb c #649ad5",
"hA c #64a8e2",
"jw c #656565",
"#k c #65798f",
"fF c #658eba",
"fA c #658fbb",
"fa c #65a4e7",
"b3 c #65a6e8",
"jX c #666666",
"hW c #6688a3",
"gh c #668cb2",
"aI c #6696cb",
"dN c #6697cc",
"bA c #6699ce",
"cu c #669edb",
"#C c #676767",
"f3 c #678db4",
"dl c #67a6eb",
"kc c #686868",
"cS c #696969",
"dK c #699bd2",
"cN c #69a2e0",
"cy c #69a3e1",
"fX c #69a6e8",
"jD c #6a6a6a",
"av c #6a84a1",
"ds c #6a9cd3",
"dL c #6a9cd4",
"jt c #6b6b6b",
"fo c #6b97c6",
"cE c #6ba5e4",
"jS c #6c6c6c",
"aV c #6c88a4",
"ir c #6c8ea4",
"il c #6c8fa5",
"eD c #6c9bce",
"dB c #6c9ed7",
"dq c #6c9fd8",
"cM c #6ca7e7",
"cp c #6ca8e8",
"eo c #6cabed",
"i2 c #6d6d6d",
"#T c #6d869f",
"#W c #6d87a0",
"gY c #6d94b5",
"aa c #6d9bcb",
"eB c #6d9dd0",
"dw c #6da0d9",
"dD c #6da1da",
"b4 c #6dacee",
"h9 c #6dafe2",
"i6 c #6e6e6e",
"bt c #6e8aa7",
"fM c #6e9bcb",
"dP c #6ea3dc",
"b5 c #6eabee",
"jd c #707070",
"ix c #7088a2",
"hx c #7098ba",
"f7 c #7099c3",
"dv c #70a5df",
"b6 c #70adef",
"iy c #70aff1",
"dm c #70aff2",
"jE c #717171",
"#m c #7188a0",
"#u c #7189a1",
"aY c #718eac",
"gO c #71aced",
"jq c #727272",
"gb c #729cc6",
"hO c #72afee",
"ib c #72afef",
"e7 c #737373",
"#y c #738ba4",
"#A c #739eca",
".j c #747474",
"#9 c #748fab",
"hs c #749ec1",
"f6 c #749fca",
".i c #757575",
"#q c #758da6",
"a5 c #7593b1",
"bo c #7594b2",
"ii c #759bb3",
"fb c #75b3f4",
"ep c #75b4f3",
"is c #75b8e2",
"ag c #767676",
"fz c #76a6da",
"ez c #76a9e0",
"dX c #76adeb",
".h c #777777",
".m c #777794",
"iX c #77a6b3",
"dn c #77b1f4",
"gK c #787878",
"#4 c #7894b0",
"fG c #78a9dd",
"j# c #797979",
"bV c #7a7a7a",
"do c #7ab4f4",
"jA c #7b7b7b",
"io c #7ba3bc",
"dp c #7bb5f5",
".k c #7c7c7c",
"bc c #7c9cbd",
"gi c #7caad8",
"aQ c #7cb0e7",
"fY c #7cb8f9",
"iM c #7cbee2",
"j1 c #7d7d7d",
"aX c #7d9ebf",
"fm c #7db0e7",
"j4 c #7e7e7e",
".8 c #7ea5ce",
"#D c #7f7f7f",
"hv c #7facd3",
"gn c #7faedd",
"eb c #808080",
"er c #80bdf9",
"j3 c #818181",
"hz c #81afd6",
"gu c #81b0e0",
"eq c #81bbf9",
"fc c #81bbfc",
"#b c #828282",
"iE c #82aac0",
"i5 c #838383",
"ha c #83b1d9",
"es c #83bcf9",
"ad c #848484",
"go c #84b5e6",
".v c #858585",
"#p c #85a0bc",
"bN c #868686",
"hZ c #86b3d6",
"fD c #86bcf6",
"fO c #86bcf7",
"gP c #86c1ff",
"di c #878787",
"ft c #87bdf8",
"bH c #888888",
"iT c #88cfe2",
"jZ c #898989",
"#z c #89a5c3",
"g. c #89bbee",
"fg c #89c0fc",
"fd c #89c2fd",
"hP c #89c3ff",
"jb c #8a8a8a",
"#o c #8aa6c4",
"jc c #8b8b8b",
".S c #8baccf",
"iI c #8bb6ce",
"al c #8bb9e8",
"hj c #8bbde7",
"gw c #8bbef2",
"ff c #8bc3ff",
"fe c #8bc4ff",
"fZ c #8bc6ff",
"ec c #8c8c8c",
"gv c #8cbff3",
"jO c #8d8d8d",
"a# c #8dadce",
"ic c #8dc7ff",
"#H c #8e8e8e",
"a. c #8eaed0",
"#L c #8ebae8",
"hY c #8ebee3",
"g4 c #8ec1ec",
"iO c #8ecbff",
"ju c #8f8f8f",
"bi c #8fb5da",
"h6 c #8fc0e5",
"f5 c #8fc4f9",
"jf c #909090",
"bl c #90b6dc",
"i1 c #90dfe2",
"bC c #919191",
"aB c #91b5dc",
"aZ c #91b7dd",
"hV c #91c2e8",
"gf c #91c6fc",
"gg c #91c7fd",
"f0 c #91c8ff",
"i7 c #929292",
"gA c #92c8fe",
"iz c #92ccff",
"iU c #939393",
"a7 c #93b9e0",
"f2 c #93c9ff",
"gQ c #93ccff",
"e8 c #949494",
".y c #9494b0",
"h1 c #94c6ec",
"f1 c #94caff",
"j9 c #959595",
"#X c #95b7da",
"cX c #969696",
"ay c #96bbe3",
"#f c #96bde8",
"aR c #96c3ee",
"gR c #96cfff",
".J c #979797",
"hQ c #97cfff",
"fT c #989898",
"#j c #98b6d7",
"#l c #98b7d8",
"iJ c #98c7e1",
"g6 c #98cffd",
"jj c #999999",
"aS c #99c4ee",
"h3 c #99ccf4",
"gS c #99d0ff",
".l c #9a9a9a",
".b c #9a9aa4",
"aw c #9ac1ea",
"gT c #9ad1ff",
"dg c #9b9b9b",
".N c #9bbee8",
"aq c #9bc1eb",
"am c #9bc4ee",
"eg c #9c9c9c",
"au c #9cc3ed",
"ao c #9cc5ee",
"c5 c #9d9d9d",
"aT c #9dc7ef",
"hU c #9dd2fb",
"hR c #9dd3ff",
"dh c #9e9e9e",
"#v c #9ebee0",
".Z c #9ec3e8",
"#M c #9ec3ed",
"#N c #9ec5ed",
"ap c #9ec5ef",
"aU c #9ec7f0",
"h2 c #9ed4fd",
"id c #9ed6ff",
"df c #9f9f9f",
"an c #9fc5ee",
"h0 c #9fd5fe",
"aM c #a0a0a0",
"hT c #a0d6ff",
"jh c #a1a1a1",
"hS c #a1d7ff",
"ji c #a2a2a2",
"#P c #a2c7ed",
"i8 c #a3a3a3",
"#O c #a3c8ed",
"iA c #a3daff",
"j. c #a4a4a4",
"je c #a5a5a5",
"#g c #a5c8ed",
"ip c #a5dafb",
"iv c #a6a6a6",
".F c #a6bed4",
"de c #a7a7a7",
"#h c #a7c9ed",
"if c #a7ddff",
"ie c #a7deff",
"eh c #a8a8a8",
"#i c #a8caee",
"iL c #a8dbf8",
"ig c #a8deff",
"iP c #a8e0ff",
"iY c #a8e2e6",
"hC c #a9a9a9",
".0 c #a9caed",
"#B c #aaaaaa",
"fU c #ababab",
".5 c #abc9e9",
"iB c #abe3ff",
"e2 c #acacac",
".6 c #accaea",
"jo c #adadad",
".1 c #adcbed",
".7 c #adccec",
"iD c #ade2ff",
"iC c #ade3ff",
"fS c #aeaeae",
".4 c #aecded",
"db c #afafaf",
".A c #afbbe7",
".2 c #afccee",
".3 c #afceee",
"d6 c #b0b0b0",
"iQ c #b0e9ff",
"bG c #b1b1b1",
"jg c #b2b2b2",
"#E c #b3b3b3",
".O c #b3d1ed",
"gF c #b4b4b4",
"cY c #b5b5b5",
"iR c #b5ebff",
"hM c #b6b6b6",
"iS c #b6ecff",
"d9 c #b7b7b7",
".U c #b8b8b8",
".u c #b9b9b9",
"dd c #bababa",
".P c #bad4ee",
"bL c #bbbbbb",
".Q c #bbd4ef",
".R c #bbd5f0",
"e9 c #bcbcbc",
"c3 c #bdbdbd",
"f. c #bebebe",
"d8 c #bfbfbf",
".o c #bfc2e8",
"iZ c #bffdff",
"iw c #c0c0c0",
"iV c #c1c1c1",
"i0 c #c1feff",
"ei c #c2c2c2",
"ej c #c3c3c3",
"#a c #c4c4c4",
"el c #c5c5c5",
"d7 c #c6c6c6",
".r c #c6cbda",
"ek c #c7c7c7",
"aN c #c8c8c8",
"#G c #c9c9c9",
"aL c #cacaca",
"ai c #cbcbcb",
".B c #cbddf2",
"bZ c #cccccc",
".C c #cce0f3",
"dc c #cdcdcd",
"ah c #cecece",
"da c #cfcfcf",
".E c #cfe1f3",
".D c #cfe1f4",
"#I c #d0d0d0",
"cV c #d1d1d1",
"fQ c #d2d2d2",
"bB c #d3d3d3",
"#c c #d4d4d4",
"d# c #d5d5d5",
"aK c #d6d6d6",
"cZ c #d7d7d7",
"c6 c #d8d8d8",
"gH c #d9d9d9",
".W c #dadada",
"gM c #dbdbdb",
"bQ c #dcdcdc",
"e1 c #dddddd",
"cR c #dedede",
"d. c #dfdfdf",
"bP c #e0e0e0",
"i# c #e1e1e1",
"bY c #e2e2e2",
".K c #e3e3e3",
"ee c #e4e4e4",
"d3 c #e5e5e5",
"ef c #e6e6e6",
".p c #e6e9f6",
"fV c #e7e7e7",
"eY c #e8e8e8",
".a c #e9e9e9",
".q c #e9edf8",
".V c #eaeaea",
"## c #ebebeb",
"Qt c #ececec",
".w c #ededed",
".x c #eeeeee",
"#. c #efefef",
".# c #f0f0f0",
".9 c #f1f1f1",
".I c #f2f2f2",
".T c #f3f3f3",
"ja c #f4f4f4",
"i9 c #f5f5f5",
"hB c #f6f6f6",
".H c #f7f7f7",
".G c #f8f8f8",
"i. c #f9f9f9",
"kg c #fafafa",
"kf c #fbfbfb",
".t c #fcfcfc",
".s c #fdfdfd",
"it c #fefefe",
"iu c #ffffff",
"#RQtQtQtQtQtQt#R",
"QtQtQtQtQtQtQtQt",
"QtQtQtQtQtQtQtQt",
"QtQtQtQtQtQtQtQt",
"QtQtQtQtQtQtQtQt",
"QtQtQtQtQtQtQtQt",
"QtQtQtQtQtQtQtQt",
"#RQtQtQtQtQtQt#R"};
