<svg xmlns="http://www.w3.org/2000/svg" width="24" height="24" fill="#0d0d0d"><path d="M8.41 18.138L12 15.845l3.59 2.323-.94-4.345 3.162-2.897-4.159-.392L12 6.43l-1.652 4.073-4.159.392 3.162 2.927-.94 4.315zm-1.346 3.696a1.04 1.04 0 0 1-1.567-1.104l1.318-6.033-4.476-4.11c-.665-.611-.293-1.726.604-1.808l5.866-.539 2.229-5.587c.348-.872 1.575-.872 1.923 0l2.229 5.587 5.866.539c.897.082 1.269 1.197.604 1.808l-4.476 4.11 1.318 6.033a1.04 1.04 0 0 1-1.567 1.104L12 18.681l-4.935 3.153z"/><path d="M12 5l-1.796 5.528H4.392l4.702 3.416-1.796 5.528L12 16.056l4.702 3.416-1.796-5.528 4.702-3.416h-5.812L12 5z"/></svg>
