STARTFONT 2.1
FONT -Adobe-Helvetica-Medium-O-Normal--8-80-75-75-P-47-ISO10646-1
SIZE 8 75 75
FONTBOUNDINGBOX 12 11 -1 -2
COMMENT $XConsortium: helvO08.bdf,v 1.13 95/01/26 18:02:22 gildea Exp $
COMMENT 
COMMENT +
COMMENT  Copyright 1984-1989, 1994 Adobe Systems Incorporated.
COMMENT  Copyright 1988, 1994 Digital Equipment Corporation.
COMMENT
COMMENT  Adobe is a trademark of Adobe Systems Incorporated which may be
COMMENT  registered in certain jurisdictions.
COMMENT  Permission to use these trademarks is hereby granted only in
COMMENT  association with the images described in this file.
COMMENT
COMMENT  Permission to use, copy, modify, distribute and sell this software
COMMENT  and its documentation for any purpose and without fee is hereby
COMMENT  granted, provided that the above copyright notices appear in all
COMMENT  copies and that both those copyright notices and this permission
COMMENT  notice appear in supporting documentation, and that the names of
COMMENT  Adobe Systems and Digital Equipment Corporation not be used in
COMMENT  advertising or publicity pertaining to distribution of the software
COMMENT  without specific, written prior permission.  Adobe Systems and
COMMENT  Digital Equipment Corporation make no representations about the
COMMENT  suitability of this software for any purpose.  It is provided "as
COMMENT  is" without express or implied warranty.
COMMENT -
STARTPROPERTIES 28
FOUNDRY "Adobe"
FAMILY_NAME "Helvetica"
WEIGHT_NAME "Medium"
SLANT "O"
SETWIDTH_NAME "Normal"
ADD_STYLE_NAME ""
PIXEL_SIZE 8
POINT_SIZE 80
RESOLUTION_X 75
RESOLUTION_Y 75
SPACING "P"
AVERAGE_WIDTH 47
CHARSET_REGISTRY "ISO10646"
CHARSET_ENCODING "1"
CAP_HEIGHT 6
X_HEIGHT 5
FONT_ASCENT 8
FONT_DESCENT 2
FACE_NAME "Helvetica Oblique"
COPYRIGHT "Copyright (c) 1984, 1987 Adobe Systems Incorporated. All Rights Reserved. Copyright (c) 1988, 1991 Digital Equipment Corporation. All Rights Reserved."
NOTICE "Helvetica is a trademark of Linotype-Hell AG and/or its subsidiaries.  "
_DEC_DEVICE_FONTNAMES "PS=Helvetica-Oblique"
_DEC_PRODUCTINFO "DECwindows Fonts V2.2, 07-Nov-1991"
DEFAULT_CHAR 32
RELATIVE_SETWIDTH 50
RELATIVE_WEIGHT 50
CHARSET_COLLECTIONS "ASCII ISO10646-1 ADOBE-STANDARD"
FULL_NAME "Helvetica Oblique"
ENDPROPERTIES
CHARS 230
STARTCHAR space
ENCODING 32
SWIDTH 278 0
DWIDTH 2 0
BBX 1 1 0 0
BITMAP
00
ENDCHAR
STARTCHAR exclam
ENCODING 33
SWIDTH 278 0
DWIDTH 3 0
BBX 3 6 0 0
BITMAP
20
20
40
40
00
80
ENDCHAR
STARTCHAR quotedbl
ENCODING 34
SWIDTH 355 0
DWIDTH 3 0
BBX 3 2 1 4
BITMAP
A0
A0
ENDCHAR
STARTCHAR numbersign
ENCODING 35
SWIDTH 556 0
DWIDTH 6 0
BBX 6 6 0 0
BITMAP
28
7C
28
F8
50
50
ENDCHAR
STARTCHAR dollar
ENCODING 36
SWIDTH 556 0
DWIDTH 5 0
BBX 5 8 0 -1
BITMAP
10
30
48
60
30
90
60
40
ENDCHAR
STARTCHAR percent
ENCODING 37
SWIDTH 889 0
DWIDTH 7 0
BBX 6 6 1 0
BITMAP
64
A8
D0
2C
54
98
ENDCHAR
STARTCHAR ampersand
ENCODING 38
SWIDTH 667 0
DWIDTH 6 0
BBX 5 6 0 0
BITMAP
18
28
30
58
D0
68
ENDCHAR
STARTCHAR quoteright
ENCODING 39
SWIDTH 222 0
DWIDTH 2 0
BBX 2 3 1 3
BITMAP
40
40
80
ENDCHAR
STARTCHAR parenleft
ENCODING 40
SWIDTH 333 0
DWIDTH 3 0
BBX 3 8 0 -2
BITMAP
20
40
40
80
80
80
40
40
ENDCHAR
STARTCHAR parenright
ENCODING 41
SWIDTH 333 0
DWIDTH 3 0
BBX 3 8 -1 -2
BITMAP
40
20
20
20
20
40
40
80
ENDCHAR
STARTCHAR asterisk
ENCODING 42
SWIDTH 389 0
DWIDTH 3 0
BBX 3 3 1 4
BITMAP
40
E0
C0
ENDCHAR
STARTCHAR plus
ENCODING 43
SWIDTH 584 0
DWIDTH 5 0
BBX 4 5 0 0
BITMAP
20
20
F0
40
40
ENDCHAR
STARTCHAR comma
ENCODING 44
SWIDTH 278 0
DWIDTH 2 0
BBX 2 3 -1 -2
BITMAP
40
40
80
ENDCHAR
STARTCHAR minus
ENCODING 45
SWIDTH 584 0
DWIDTH 6 0
BBX 4 1 1 2
BITMAP
F0
ENDCHAR
STARTCHAR period
ENCODING 46
SWIDTH 278 0
DWIDTH 2 0
BBX 1 1 0 0
BITMAP
80
ENDCHAR
STARTCHAR slash
ENCODING 47
SWIDTH 278 0
DWIDTH 2 0
BBX 2 6 0 0
BITMAP
40
40
40
80
80
80
ENDCHAR
STARTCHAR zero
ENCODING 48
SWIDTH 556 0
DWIDTH 5 0
BBX 5 6 0 0
BITMAP
30
48
88
88
90
60
ENDCHAR
STARTCHAR one
ENCODING 49
SWIDTH 556 0
DWIDTH 5 0
BBX 3 6 1 0
BITMAP
20
E0
20
40
40
40
ENDCHAR
STARTCHAR two
ENCODING 50
SWIDTH 556 0
DWIDTH 5 0
BBX 5 6 0 0
BITMAP
30
48
18
60
80
F0
ENDCHAR
STARTCHAR three
ENCODING 51
SWIDTH 556 0
DWIDTH 5 0
BBX 5 6 0 0
BITMAP
30
48
30
10
90
60
ENDCHAR
STARTCHAR four
ENCODING 52
SWIDTH 556 0
DWIDTH 5 0
BBX 5 6 0 0
BITMAP
10
30
50
F8
20
20
ENDCHAR
STARTCHAR five
ENCODING 53
SWIDTH 556 0
DWIDTH 5 0
BBX 5 6 0 0
BITMAP
78
40
70
10
90
60
ENDCHAR
STARTCHAR six
ENCODING 54
SWIDTH 556 0
DWIDTH 5 0
BBX 5 6 0 0
BITMAP
30
48
E0
90
90
60
ENDCHAR
STARTCHAR seven
ENCODING 55
SWIDTH 556 0
DWIDTH 5 0
BBX 4 6 1 0
BITMAP
F0
10
20
40
80
80
ENDCHAR
STARTCHAR eight
ENCODING 56
SWIDTH 556 0
DWIDTH 5 0
BBX 5 6 0 0
BITMAP
30
48
70
90
90
60
ENDCHAR
STARTCHAR nine
ENCODING 57
SWIDTH 556 0
DWIDTH 5 0
BBX 5 6 0 0
BITMAP
30
48
48
38
90
60
ENDCHAR
STARTCHAR colon
ENCODING 58
SWIDTH 278 0
DWIDTH 2 0
BBX 2 5 0 0
BITMAP
40
00
00
00
80
ENDCHAR
STARTCHAR semicolon
ENCODING 59
SWIDTH 278 0
DWIDTH 2 0
BBX 3 7 -1 -2
BITMAP
20
00
00
00
40
40
80
ENDCHAR
STARTCHAR less
ENCODING 60
SWIDTH 584 0
DWIDTH 5 0
BBX 3 4 1 0
BITMAP
20
40
80
40
ENDCHAR
STARTCHAR equal
ENCODING 61
SWIDTH 584 0
DWIDTH 6 0
BBX 4 3 1 1
BITMAP
70
00
E0
ENDCHAR
STARTCHAR greater
ENCODING 62
SWIDTH 584 0
DWIDTH 5 0
BBX 3 4 1 0
BITMAP
40
20
40
80
ENDCHAR
STARTCHAR question
ENCODING 63
SWIDTH 556 0
DWIDTH 5 0
BBX 4 6 1 0
BITMAP
60
10
20
40
00
80
ENDCHAR
STARTCHAR at
ENCODING 64
SWIDTH 1015 0
DWIDTH 9 0
BBX 7 7 1 -1
BITMAP
7C
C2
BA
AA
BC
C0
70
ENDCHAR
STARTCHAR A
ENCODING 65
SWIDTH 667 0
DWIDTH 6 0
BBX 6 6 -1 0
BITMAP
08
18
24
7C
44
84
ENDCHAR
STARTCHAR B
ENCODING 66
SWIDTH 667 0
DWIDTH 6 0
BBX 5 6 0 0
BITMAP
78
48
70
88
88
F0
ENDCHAR
STARTCHAR C
ENCODING 67
SWIDTH 722 0
DWIDTH 6 0
BBX 6 6 0 0
BITMAP
38
44
80
80
C8
70
ENDCHAR
STARTCHAR D
ENCODING 68
SWIDTH 722 0
DWIDTH 6 0
BBX 6 6 0 0
BITMAP
78
44
44
84
88
F0
ENDCHAR
STARTCHAR E
ENCODING 69
SWIDTH 667 0
DWIDTH 6 0
BBX 6 6 0 0
BITMAP
7C
40
78
80
80
F0
ENDCHAR
STARTCHAR F
ENCODING 70
SWIDTH 611 0
DWIDTH 5 0
BBX 6 6 0 0
BITMAP
7C
40
70
80
80
80
ENDCHAR
STARTCHAR G
ENCODING 71
SWIDTH 778 0
DWIDTH 6 0
BBX 6 6 0 0
BITMAP
38
44
40
9C
C8
70
ENDCHAR
STARTCHAR H
ENCODING 72
SWIDTH 722 0
DWIDTH 6 0
BBX 6 6 0 0
BITMAP
44
44
7C
88
88
88
ENDCHAR
STARTCHAR I
ENCODING 73
SWIDTH 278 0
DWIDTH 2 0
BBX 2 6 0 0
BITMAP
40
40
40
80
80
80
ENDCHAR
STARTCHAR J
ENCODING 74
SWIDTH 500 0
DWIDTH 4 0
BBX 4 6 0 0
BITMAP
10
10
10
A0
A0
40
ENDCHAR
STARTCHAR K
ENCODING 75
SWIDTH 667 0
DWIDTH 6 0
BBX 5 6 0 0
BITMAP
48
50
60
E0
90
88
ENDCHAR
STARTCHAR L
ENCODING 76
SWIDTH 556 0
DWIDTH 4 0
BBX 3 6 0 0
BITMAP
40
40
40
80
80
E0
ENDCHAR
STARTCHAR M
ENCODING 77
SWIDTH 833 0
DWIDTH 7 0
BBX 6 6 0 0
BITMAP
44
44
6C
AC
B4
94
ENDCHAR
STARTCHAR N
ENCODING 78
SWIDTH 722 0
DWIDTH 6 0
BBX 6 6 0 0
BITMAP
44
64
64
98
98
88
ENDCHAR
STARTCHAR O
ENCODING 79
SWIDTH 778 0
DWIDTH 6 0
BBX 6 6 0 0
BITMAP
38
4C
84
84
C8
70
ENDCHAR
STARTCHAR P
ENCODING 80
SWIDTH 667 0
DWIDTH 6 0
BBX 5 6 0 0
BITMAP
70
48
48
F0
80
80
ENDCHAR
STARTCHAR Q
ENCODING 81
SWIDTH 778 0
DWIDTH 6 0
BBX 6 7 0 -1
BITMAP
38
4C
84
94
D8
78
08
ENDCHAR
STARTCHAR R
ENCODING 82
SWIDTH 722 0
DWIDTH 6 0
BBX 5 6 0 0
BITMAP
70
48
48
F0
90
90
ENDCHAR
STARTCHAR S
ENCODING 83
SWIDTH 667 0
DWIDTH 6 0
BBX 6 6 0 0
BITMAP
38
44
70
18
88
70
ENDCHAR
STARTCHAR T
ENCODING 84
SWIDTH 611 0
DWIDTH 4 0
BBX 4 6 1 0
BITMAP
F0
40
40
80
80
80
ENDCHAR
STARTCHAR U
ENCODING 85
SWIDTH 722 0
DWIDTH 6 0
BBX 6 6 0 0
BITMAP
44
44
44
88
88
70
ENDCHAR
STARTCHAR V
ENCODING 86
SWIDTH 667 0
DWIDTH 6 0
BBX 5 6 1 0
BITMAP
88
90
90
A0
A0
40
ENDCHAR
STARTCHAR W
ENCODING 87
SWIDTH 944 0
DWIDTH 8 0
BBX 7 6 1 0
BITMAP
92
92
B4
54
48
48
ENDCHAR
STARTCHAR X
ENCODING 88
SWIDTH 667 0
DWIDTH 6 0
BBX 6 6 0 0
BITMAP
44
48
30
30
48
88
ENDCHAR
STARTCHAR Y
ENCODING 89
SWIDTH 667 0
DWIDTH 6 0
BBX 4 6 2 0
BITMAP
90
90
A0
C0
80
80
ENDCHAR
STARTCHAR Z
ENCODING 90
SWIDTH 611 0
DWIDTH 6 0
BBX 6 6 0 0
BITMAP
7C
08
10
20
40
F8
ENDCHAR
STARTCHAR bracketleft
ENCODING 91
SWIDTH 278 0
DWIDTH 3 0
BBX 4 8 -1 -2
BITMAP
30
20
20
40
40
40
80
C0
ENDCHAR
STARTCHAR backslash
ENCODING 92
SWIDTH 278 0
DWIDTH 2 0
BBX 2 6 0 0
BITMAP
80
80
80
40
40
40
ENDCHAR
STARTCHAR bracketright
ENCODING 93
SWIDTH 278 0
DWIDTH 3 0
BBX 4 8 -1 -2
BITMAP
30
10
10
20
20
20
40
C0
ENDCHAR
STARTCHAR asciicircum
ENCODING 94
SWIDTH 469 0
DWIDTH 5 0
BBX 3 3 1 3
BITMAP
20
60
A0
ENDCHAR
STARTCHAR underscore
ENCODING 95
SWIDTH 556 0
DWIDTH 5 0
BBX 5 1 -1 -1
BITMAP
F8
ENDCHAR
STARTCHAR quoteleft
ENCODING 96
SWIDTH 222 0
DWIDTH 2 0
BBX 2 3 0 3
BITMAP
40
80
80
ENDCHAR
STARTCHAR a
ENCODING 97
SWIDTH 556 0
DWIDTH 4 0
BBX 4 5 0 0
BITMAP
60
10
70
A0
F0
ENDCHAR
STARTCHAR b
ENCODING 98
SWIDTH 556 0
DWIDTH 4 0
BBX 4 7 0 0
BITMAP
20
40
60
50
90
90
E0
ENDCHAR
STARTCHAR c
ENCODING 99
SWIDTH 500 0
DWIDTH 4 0
BBX 4 5 0 0
BITMAP
30
50
80
80
60
ENDCHAR
STARTCHAR d
ENCODING 100
SWIDTH 556 0
DWIDTH 4 0
BBX 5 7 0 0
BITMAP
08
08
30
50
90
A0
60
ENDCHAR
STARTCHAR e
ENCODING 101
SWIDTH 556 0
DWIDTH 4 0
BBX 4 5 0 0
BITMAP
30
50
E0
80
60
ENDCHAR
STARTCHAR f
ENCODING 102
SWIDTH 278 0
DWIDTH 3 0
BBX 4 7 1 0
BITMAP
30
40
E0
40
80
80
80
ENDCHAR
STARTCHAR g
ENCODING 103
SWIDTH 556 0
DWIDTH 4 0
BBX 5 7 -1 -2
BITMAP
18
28
48
50
30
20
C0
ENDCHAR
STARTCHAR h
ENCODING 104
SWIDTH 556 0
DWIDTH 5 0
BBX 5 7 0 0
BITMAP
20
20
70
48
48
90
90
ENDCHAR
STARTCHAR i
ENCODING 105
SWIDTH 222 0
DWIDTH 2 0
BBX 2 7 0 0
BITMAP
40
00
40
40
40
80
80
ENDCHAR
STARTCHAR j
ENCODING 106
SWIDTH 222 0
DWIDTH 2 0
BBX 3 9 -1 -2
BITMAP
20
00
20
20
20
40
40
40
80
ENDCHAR
STARTCHAR k
ENCODING 107
SWIDTH 500 0
DWIDTH 4 0
BBX 5 7 0 0
BITMAP
20
20
48
50
E0
90
90
ENDCHAR
STARTCHAR l
ENCODING 108
SWIDTH 222 0
DWIDTH 2 0
BBX 3 7 0 0
BITMAP
20
20
40
40
40
80
80
ENDCHAR
STARTCHAR m
ENCODING 109
SWIDTH 833 0
DWIDTH 6 0
BBX 6 5 0 0
BITMAP
6C
54
A8
A8
A8
ENDCHAR
STARTCHAR n
ENCODING 110
SWIDTH 556 0
DWIDTH 5 0
BBX 5 5 0 0
BITMAP
70
48
48
90
90
ENDCHAR
STARTCHAR o
ENCODING 111
SWIDTH 556 0
DWIDTH 5 0
BBX 5 5 0 0
BITMAP
30
48
88
90
60
ENDCHAR
STARTCHAR p
ENCODING 112
SWIDTH 556 0
DWIDTH 4 0
BBX 5 7 -1 -2
BITMAP
30
28
48
50
60
80
80
ENDCHAR
STARTCHAR q
ENCODING 113
SWIDTH 556 0
DWIDTH 4 0
BBX 4 7 0 -2
BITMAP
30
50
90
A0
60
40
40
ENDCHAR
STARTCHAR r
ENCODING 114
SWIDTH 333 0
DWIDTH 3 0
BBX 4 5 0 0
BITMAP
50
60
C0
80
80
ENDCHAR
STARTCHAR s
ENCODING 115
SWIDTH 500 0
DWIDTH 4 0
BBX 4 5 0 0
BITMAP
30
40
60
20
C0
ENDCHAR
STARTCHAR t
ENCODING 116
SWIDTH 278 0
DWIDTH 3 0
BBX 4 6 0 0
BITMAP
20
F0
40
40
80
60
ENDCHAR
STARTCHAR u
ENCODING 117
SWIDTH 556 0
DWIDTH 4 0
BBX 4 5 0 0
BITMAP
50
50
90
A0
60
ENDCHAR
STARTCHAR v
ENCODING 118
SWIDTH 500 0
DWIDTH 5 0
BBX 4 5 1 0
BITMAP
90
90
A0
40
40
ENDCHAR
STARTCHAR w
ENCODING 119
SWIDTH 722 0
DWIDTH 6 0
BBX 5 5 1 0
BITMAP
A8
A8
A8
F0
90
ENDCHAR
STARTCHAR x
ENCODING 120
SWIDTH 500 0
DWIDTH 5 0
BBX 5 5 0 0
BITMAP
48
50
20
50
90
ENDCHAR
STARTCHAR y
ENCODING 121
SWIDTH 500 0
DWIDTH 4 0
BBX 4 6 0 -1
BITMAP
90
90
60
40
40
80
ENDCHAR
STARTCHAR z
ENCODING 122
SWIDTH 500 0
DWIDTH 4 0
BBX 4 5 0 0
BITMAP
70
10
20
40
E0
ENDCHAR
STARTCHAR braceleft
ENCODING 123
SWIDTH 334 0
DWIDTH 3 0
BBX 3 8 0 -2
BITMAP
20
40
40
C0
40
80
80
40
ENDCHAR
STARTCHAR bar
ENCODING 124
SWIDTH 260 0
DWIDTH 2 0
BBX 2 7 0 -1
BITMAP
40
40
40
80
80
80
80
ENDCHAR
STARTCHAR braceright
ENCODING 125
SWIDTH 334 0
DWIDTH 3 0
BBX 4 8 -1 -2
BITMAP
40
20
20
30
20
40
40
80
ENDCHAR
STARTCHAR asciitilde
ENCODING 126
SWIDTH 584 0
DWIDTH 6 0
BBX 5 2 1 2
BITMAP
68
B0
ENDCHAR
STARTCHAR space
ENCODING 160
SWIDTH 278 0
DWIDTH 2 0
BBX 1 1 0 0
BITMAP
00
ENDCHAR
STARTCHAR exclamdown
ENCODING 161
SWIDTH 333 0
DWIDTH 3 0
BBX 3 7 0 -2
BITMAP
20
00
40
40
40
80
80
ENDCHAR
STARTCHAR cent
ENCODING 162
SWIDTH 556 0
DWIDTH 6 0
BBX 4 6 2 0
BITMAP
20
60
90
80
E0
40
ENDCHAR
STARTCHAR sterling
ENCODING 163
SWIDTH 556 0
DWIDTH 5 0
BBX 5 6 0 0
BITMAP
30
48
E0
40
50
A0
ENDCHAR
STARTCHAR currency
ENCODING 164
SWIDTH 556 0
DWIDTH 5 0
BBX 5 5 0 1
BITMAP
48
30
50
60
90
ENDCHAR
STARTCHAR yen
ENCODING 165
SWIDTH 556 0
DWIDTH 5 0
BBX 5 6 0 0
BITMAP
48
F8
50
F8
60
40
ENDCHAR
STARTCHAR brokenbar
ENCODING 166
SWIDTH 260 0
DWIDTH 2 0
BBX 2 7 0 -1
BITMAP
40
40
40
00
80
80
80
ENDCHAR
STARTCHAR section
ENCODING 167
SWIDTH 556 0
DWIDTH 5 0
BBX 5 8 0 -2
BITMAP
18
20
70
50
70
20
20
C0
ENDCHAR
STARTCHAR dieresis
ENCODING 168
SWIDTH 333 0
DWIDTH 2 0
BBX 3 1 1 5
BITMAP
A0
ENDCHAR
STARTCHAR copyright
ENCODING 169
SWIDTH 737 0
DWIDTH 8 0
BBX 6 7 1 0
BITMAP
30
48
B4
A4
B4
48
30
ENDCHAR
STARTCHAR ordfeminine
ENCODING 170
SWIDTH 370 0
DWIDTH 4 0
BBX 4 5 0 2
BITMAP
60
30
60
00
E0
ENDCHAR
STARTCHAR guillemotleft
ENCODING 171
SWIDTH 556 0
DWIDTH 6 0
BBX 4 3 1 1
BITMAP
50
A0
A0
ENDCHAR
STARTCHAR logicalnot
ENCODING 172
SWIDTH 584 0
DWIDTH 6 0
BBX 4 2 1 2
BITMAP
F0
10
ENDCHAR
STARTCHAR hyphen
ENCODING 173
SWIDTH 333 0
DWIDTH 5 0
BBX 3 1 1 2
BITMAP
E0
ENDCHAR
STARTCHAR registered
ENCODING 174
SWIDTH 737 0
DWIDTH 8 0
BBX 6 7 1 0
BITMAP
30
48
B4
B4
AC
48
30
ENDCHAR
STARTCHAR macron
ENCODING 175
SWIDTH 333 0
DWIDTH 2 0
BBX 3 1 1 5
BITMAP
E0
ENDCHAR
STARTCHAR degree
ENCODING 176
SWIDTH 400 0
DWIDTH 3 0
BBX 3 3 1 3
BITMAP
60
A0
C0
ENDCHAR
STARTCHAR plusminus
ENCODING 177
SWIDTH 584 0
DWIDTH 5 0
BBX 4 6 0 0
BITMAP
20
20
70
20
00
E0
ENDCHAR
STARTCHAR twosuperior
ENCODING 178
SWIDTH 333 0
DWIDTH 2 0
BBX 3 4 0 2
BITMAP
60
A0
40
E0
ENDCHAR
STARTCHAR threesuperior
ENCODING 179
SWIDTH 333 0
DWIDTH 2 0
BBX 3 4 0 2
BITMAP
E0
40
20
C0
ENDCHAR
STARTCHAR acute
ENCODING 180
SWIDTH 333 0
DWIDTH 2 0
BBX 2 2 1 5
BITMAP
40
80
ENDCHAR
STARTCHAR mu
ENCODING 181
SWIDTH 556 0
DWIDTH 4 0
BBX 4 7 0 -2
BITMAP
50
50
90
A0
E0
80
80
ENDCHAR
STARTCHAR paragraph
ENCODING 182
SWIDTH 537 0
DWIDTH 5 0
BBX 5 8 0 -2
BITMAP
78
C8
D0
D0
50
A0
A0
A0
ENDCHAR
STARTCHAR periodcentered
ENCODING 183
SWIDTH 278 0
DWIDTH 2 0
BBX 1 2 1 2
BITMAP
80
80
ENDCHAR
STARTCHAR cedilla
ENCODING 184
SWIDTH 333 0
DWIDTH 2 0
BBX 2 2 -1 -1
BITMAP
40
C0
ENDCHAR
STARTCHAR onesuperior
ENCODING 185
SWIDTH 333 0
DWIDTH 2 0
BBX 3 4 0 2
BITMAP
20
E0
40
40
ENDCHAR
STARTCHAR ordmasculine
ENCODING 186
SWIDTH 365 0
DWIDTH 4 0
BBX 4 5 0 2
BITMAP
30
50
60
00
E0
ENDCHAR
STARTCHAR guillemotright
ENCODING 187
SWIDTH 556 0
DWIDTH 6 0
BBX 4 3 1 1
BITMAP
50
50
A0
ENDCHAR
STARTCHAR onequarter
ENCODING 188
SWIDTH 834 0
DWIDTH 7 0
BBX 7 7 0 -1
BITMAP
22
E4
48
54
2C
5E
08
ENDCHAR
STARTCHAR onehalf
ENCODING 189
SWIDTH 834 0
DWIDTH 7 0
BBX 7 7 0 -1
BITMAP
22
E4
48
56
2A
44
0E
ENDCHAR
STARTCHAR threequarters
ENCODING 190
SWIDTH 834 0
DWIDTH 7 0
BBX 7 7 0 -1
BITMAP
E2
44
28
D4
2C
5E
08
ENDCHAR
STARTCHAR questiondown
ENCODING 191
SWIDTH 611 0
DWIDTH 5 0
BBX 4 7 0 -2
BITMAP
10
00
20
40
80
80
60
ENDCHAR
STARTCHAR Agrave
ENCODING 192
SWIDTH 667 0
DWIDTH 6 0
BBX 6 9 -1 0
BITMAP
10
08
00
08
18
24
7C
44
84
ENDCHAR
STARTCHAR Aacute
ENCODING 193
SWIDTH 667 0
DWIDTH 6 0
BBX 6 9 -1 0
BITMAP
04
08
00
08
18
24
7C
44
84
ENDCHAR
STARTCHAR Acircumflex
ENCODING 194
SWIDTH 667 0
DWIDTH 6 0
BBX 6 9 -1 0
BITMAP
0C
14
00
08
18
24
7C
44
84
ENDCHAR
STARTCHAR Atilde
ENCODING 195
SWIDTH 667 0
DWIDTH 6 0
BBX 7 9 -1 0
BITMAP
0A
14
00
08
18
24
7C
44
84
ENDCHAR
STARTCHAR Adieresis
ENCODING 196
SWIDTH 667 0
DWIDTH 6 0
BBX 6 8 -1 0
BITMAP
14
00
08
18
24
7C
44
84
ENDCHAR
STARTCHAR Aring
ENCODING 197
SWIDTH 667 0
DWIDTH 6 0
BBX 6 9 -1 0
BITMAP
08
14
08
08
18
24
7C
44
84
ENDCHAR
STARTCHAR AE
ENCODING 198
SWIDTH 1000 0
DWIDTH 8 0
BBX 8 6 0 0
BITMAP
1F
28
2E
70
90
9E
ENDCHAR
STARTCHAR Ccedilla
ENCODING 199
SWIDTH 722 0
DWIDTH 6 0
BBX 6 8 0 -2
BITMAP
38
44
40
80
88
70
20
60
ENDCHAR
STARTCHAR Egrave
ENCODING 200
SWIDTH 667 0
DWIDTH 6 0
BBX 6 9 0 0
BITMAP
20
10
00
7C
40
78
80
80
F0
ENDCHAR
STARTCHAR Eacute
ENCODING 201
SWIDTH 667 0
DWIDTH 6 0
BBX 6 9 0 0
BITMAP
08
10
00
7C
40
78
80
80
F0
ENDCHAR
STARTCHAR Ecircumflex
ENCODING 202
SWIDTH 667 0
DWIDTH 6 0
BBX 6 9 0 0
BITMAP
10
28
00
7C
40
78
80
80
F0
ENDCHAR
STARTCHAR Edieresis
ENCODING 203
SWIDTH 667 0
DWIDTH 6 0
BBX 6 8 0 0
BITMAP
28
00
7C
40
78
80
80
F0
ENDCHAR
STARTCHAR Igrave
ENCODING 204
SWIDTH 278 0
DWIDTH 2 0
BBX 2 9 0 0
BITMAP
80
40
00
40
40
40
80
80
80
ENDCHAR
STARTCHAR Iacute
ENCODING 205
SWIDTH 278 0
DWIDTH 2 0
BBX 3 9 0 0
BITMAP
20
40
00
40
40
40
80
80
80
ENDCHAR
STARTCHAR Icircumflex
ENCODING 206
SWIDTH 278 0
DWIDTH 2 0
BBX 3 9 0 0
BITMAP
40
A0
00
40
40
40
80
80
80
ENDCHAR
STARTCHAR Idieresis
ENCODING 207
SWIDTH 278 0
DWIDTH 2 0
BBX 3 8 0 0
BITMAP
A0
00
40
40
40
80
80
80
ENDCHAR
STARTCHAR Eth
ENCODING 208
SWIDTH 722 0
DWIDTH 6 0
BBX 6 6 0 0
BITMAP
78
44
64
84
88
F0
ENDCHAR
STARTCHAR Ntilde
ENCODING 209
SWIDTH 722 0
DWIDTH 6 0
BBX 6 9 0 0
BITMAP
14
28
00
44
64
64
98
98
88
ENDCHAR
STARTCHAR Ograve
ENCODING 210
SWIDTH 778 0
DWIDTH 6 0
BBX 6 9 0 0
BITMAP
20
10
00
38
4C
84
84
C8
70
ENDCHAR
STARTCHAR Oacute
ENCODING 211
SWIDTH 778 0
DWIDTH 6 0
BBX 6 9 0 0
BITMAP
08
10
00
38
4C
84
84
C8
70
ENDCHAR
STARTCHAR Ocircumflex
ENCODING 212
SWIDTH 778 0
DWIDTH 6 0
BBX 6 9 0 0
BITMAP
10
28
00
38
4C
84
84
C8
70
ENDCHAR
STARTCHAR Otilde
ENCODING 213
SWIDTH 778 0
DWIDTH 6 0
BBX 6 9 0 0
BITMAP
14
28
00
38
4C
84
84
C8
70
ENDCHAR
STARTCHAR Odieresis
ENCODING 214
SWIDTH 778 0
DWIDTH 6 0
BBX 6 8 0 0
BITMAP
28
00
38
4C
84
84
C8
70
ENDCHAR
STARTCHAR multiply
ENCODING 215
SWIDTH 584 0
DWIDTH 5 0
BBX 5 4 0 1
BITMAP
48
30
60
90
ENDCHAR
STARTCHAR Oslash
ENCODING 216
SWIDTH 778 0
DWIDTH 6 0
BBX 6 6 0 0
BITMAP
3C
4C
94
A4
C8
F0
ENDCHAR
STARTCHAR Ugrave
ENCODING 217
SWIDTH 722 0
DWIDTH 6 0
BBX 6 9 0 0
BITMAP
20
10
00
44
44
44
88
88
70
ENDCHAR
STARTCHAR Uacute
ENCODING 218
SWIDTH 722 0
DWIDTH 6 0
BBX 6 9 0 0
BITMAP
08
10
00
44
44
44
88
88
70
ENDCHAR
STARTCHAR Ucircumflex
ENCODING 219
SWIDTH 722 0
DWIDTH 6 0
BBX 6 9 0 0
BITMAP
10
28
00
44
44
44
88
88
70
ENDCHAR
STARTCHAR Udieresis
ENCODING 220
SWIDTH 722 0
DWIDTH 6 0
BBX 6 8 0 0
BITMAP
28
00
44
44
44
88
88
70
ENDCHAR
STARTCHAR Yacute
ENCODING 221
SWIDTH 667 0
DWIDTH 6 0
BBX 4 9 2 0
BITMAP
10
20
00
90
90
A0
C0
80
80
ENDCHAR
STARTCHAR Thorn
ENCODING 222
SWIDTH 667 0
DWIDTH 6 0
BBX 5 6 0 0
BITMAP
40
70
48
48
F0
80
ENDCHAR
STARTCHAR germandbls
ENCODING 223
SWIDTH 611 0
DWIDTH 5 0
BBX 5 6 0 0
BITMAP
30
48
70
90
90
A0
ENDCHAR
STARTCHAR agrave
ENCODING 224
SWIDTH 556 0
DWIDTH 4 0
BBX 4 8 0 0
BITMAP
40
20
00
60
10
70
A0
F0
ENDCHAR
STARTCHAR aacute
ENCODING 225
SWIDTH 556 0
DWIDTH 4 0
BBX 4 8 0 0
BITMAP
10
20
00
60
10
70
A0
F0
ENDCHAR
STARTCHAR acircumflex
ENCODING 226
SWIDTH 556 0
DWIDTH 4 0
BBX 4 8 0 0
BITMAP
20
50
00
60
10
70
A0
F0
ENDCHAR
STARTCHAR atilde
ENCODING 227
SWIDTH 556 0
DWIDTH 4 0
BBX 5 8 0 0
BITMAP
28
50
00
60
10
70
A0
F0
ENDCHAR
STARTCHAR adieresis
ENCODING 228
SWIDTH 556 0
DWIDTH 4 0
BBX 4 7 0 0
BITMAP
50
00
60
10
F0
A0
F0
ENDCHAR
STARTCHAR aring
ENCODING 229
SWIDTH 556 0
DWIDTH 4 0
BBX 4 8 0 0
BITMAP
20
50
00
60
10
70
A0
F0
ENDCHAR
STARTCHAR ae
ENCODING 230
SWIDTH 889 0
DWIDTH 6 0
BBX 6 5 0 0
BITMAP
6C
14
78
A0
F8
ENDCHAR
STARTCHAR ccedilla
ENCODING 231
SWIDTH 500 0
DWIDTH 4 0
BBX 4 7 0 -2
BITMAP
30
50
80
A0
C0
40
C0
ENDCHAR
STARTCHAR egrave
ENCODING 232
SWIDTH 556 0
DWIDTH 4 0
BBX 4 8 0 0
BITMAP
20
10
00
30
50
E0
80
60
ENDCHAR
STARTCHAR eacute
ENCODING 233
SWIDTH 556 0
DWIDTH 4 0
BBX 5 8 0 0
BITMAP
08
10
00
30
50
E0
80
60
ENDCHAR
STARTCHAR ecircumflex
ENCODING 234
SWIDTH 556 0
DWIDTH 4 0
BBX 5 8 0 0
BITMAP
10
28
00
30
50
E0
80
60
ENDCHAR
STARTCHAR edieresis
ENCODING 235
SWIDTH 556 0
DWIDTH 4 0
BBX 5 7 0 0
BITMAP
28
00
30
50
E0
80
60
ENDCHAR
STARTCHAR igrave
ENCODING 236
SWIDTH 278 0
DWIDTH 2 0
BBX 2 8 0 0
BITMAP
80
40
00
40
40
40
80
80
ENDCHAR
STARTCHAR iacute
ENCODING 237
SWIDTH 278 0
DWIDTH 2 0
BBX 3 8 0 0
BITMAP
20
40
00
40
40
40
80
80
ENDCHAR
STARTCHAR icircumflex
ENCODING 238
SWIDTH 278 0
DWIDTH 2 0
BBX 3 8 0 0
BITMAP
40
A0
00
40
40
40
80
80
ENDCHAR
STARTCHAR idieresis
ENCODING 239
SWIDTH 278 0
DWIDTH 2 0
BBX 3 7 0 0
BITMAP
A0
00
40
40
40
80
80
ENDCHAR
STARTCHAR eth
ENCODING 240
SWIDTH 556 0
DWIDTH 5 0
BBX 5 7 0 0
BITMAP
D0
60
B0
48
88
90
60
ENDCHAR
STARTCHAR ntilde
ENCODING 241
SWIDTH 556 0
DWIDTH 5 0
BBX 6 8 0 0
BITMAP
14
28
00
70
48
48
90
90
ENDCHAR
STARTCHAR ograve
ENCODING 242
SWIDTH 556 0
DWIDTH 5 0
BBX 5 8 0 0
BITMAP
20
10
00
30
48
88
90
60
ENDCHAR
STARTCHAR oacute
ENCODING 243
SWIDTH 556 0
DWIDTH 5 0
BBX 6 8 0 0
BITMAP
04
08
00
30
48
88
90
60
ENDCHAR
STARTCHAR ocircumflex
ENCODING 244
SWIDTH 556 0
DWIDTH 5 0
BBX 5 8 0 0
BITMAP
10
28
00
30
48
88
90
60
ENDCHAR
STARTCHAR otilde
ENCODING 245
SWIDTH 556 0
DWIDTH 5 0
BBX 5 8 0 0
BITMAP
28
50
00
30
48
D8
90
60
ENDCHAR
STARTCHAR odieresis
ENCODING 246
SWIDTH 556 0
DWIDTH 5 0
BBX 5 7 0 0
BITMAP
28
00
30
48
D8
90
60
ENDCHAR
STARTCHAR divide
ENCODING 247
SWIDTH 584 0
DWIDTH 5 0
BBX 4 5 1 0
BITMAP
20
00
F0
00
40
ENDCHAR
STARTCHAR oslash
ENCODING 248
SWIDTH 611 0
DWIDTH 5 0
BBX 5 7 0 -1
BITMAP
08
38
48
88
90
E0
80
ENDCHAR
STARTCHAR ugrave
ENCODING 249
SWIDTH 556 0
DWIDTH 4 0
BBX 4 8 0 0
BITMAP
40
20
00
50
50
90
A0
60
ENDCHAR
STARTCHAR uacute
ENCODING 250
SWIDTH 556 0
DWIDTH 4 0
BBX 4 8 0 0
BITMAP
10
20
00
50
50
90
A0
60
ENDCHAR
STARTCHAR ucircumflex
ENCODING 251
SWIDTH 556 0
DWIDTH 4 0
BBX 4 8 0 0
BITMAP
20
50
00
50
50
90
A0
60
ENDCHAR
STARTCHAR udieresis
ENCODING 252
SWIDTH 556 0
DWIDTH 4 0
BBX 4 7 0 0
BITMAP
50
00
50
50
90
A0
60
ENDCHAR
STARTCHAR yacute
ENCODING 253
SWIDTH 500 0
DWIDTH 4 0
BBX 4 9 0 -1
BITMAP
10
20
00
90
90
60
40
40
80
ENDCHAR
STARTCHAR thorn
ENCODING 254
SWIDTH 556 0
DWIDTH 4 0
BBX 5 8 -1 -2
BITMAP
20
30
28
48
50
60
80
C0
ENDCHAR
STARTCHAR ydieresis
ENCODING 255
SWIDTH 500 0
DWIDTH 4 0
BBX 4 8 0 -1
BITMAP
50
00
90
90
60
40
40
80
ENDCHAR
STARTCHAR Euro
ENCODING 8364
SWIDTH 722 0
DWIDTH 6 0
BBX 7 6 -1 0
BITMAP
1C
72
40
E0
64
38
ENDCHAR
ENDFONT
