STARTFONT 2.1
FONT -Adobe-Helvetica-Bold-O-Normal--24-240-75-75-P-138-ISO10646-1
SIZE 24 75 75
FONTBOUNDINGBOX 28 29 -1 -5
COMMENT $XConsortium: helvBO24.bdf,v 1.16 95/01/26 18:02:18 gildea Exp $
COMMENT 
COMMENT +
COMMENT  Copyright 1984-1989, 1994 Adobe Systems Incorporated.
COMMENT  Copyright 1988, 1994 Digital Equipment Corporation.
COMMENT
COMMENT  Adobe is a trademark of Adobe Systems Incorporated which may be
COMMENT  registered in certain jurisdictions.
COMMENT  Permission to use these trademarks is hereby granted only in
COMMENT  association with the images described in this file.
COMMENT
COMMENT  Permission to use, copy, modify, distribute and sell this software
COMMENT  and its documentation for any purpose and without fee is hereby
COMMENT  granted, provided that the above copyright notices appear in all
COMMENT  copies and that both those copyright notices and this permission
COMMENT  notice appear in supporting documentation, and that the names of
COMMENT  Adobe Systems and Digital Equipment Corporation not be used in
COMMENT  advertising or publicity pertaining to distribution of the software
COMMENT  without specific, written prior permission.  Adobe Systems and
COMMENT  Digital Equipment Corporation make no representations about the
COMMENT  suitability of this software for any purpose.  It is provided "as
COMMENT  is" without express or implied warranty.
COMMENT -
STARTPROPERTIES 28
FOUNDRY "Adobe"
FAMILY_NAME "Helvetica"
WEIGHT_NAME "Bold"
SLANT "O"
SETWIDTH_NAME "Normal"
ADD_STYLE_NAME ""
PIXEL_SIZE 24
POINT_SIZE 240
RESOLUTION_X 75
RESOLUTION_Y 75
SPACING "P"
AVERAGE_WIDTH 138
CHARSET_REGISTRY "ISO10646"
CHARSET_ENCODING "1"
CAP_HEIGHT 19
X_HEIGHT 14
FONT_ASCENT 22
FONT_DESCENT 5
FACE_NAME "Helvetica Bold Oblique"
COPYRIGHT "Copyright (c) 1984, 1987 Adobe Systems Incorporated. All Rights Reserved. Copyright (c) 1988, 1991 Digital Equipment Corporation. All Rights Reserved."
NOTICE "Helvetica is a trademark of Linotype-Hell AG and/or its subsidiaries.  "
_DEC_DEVICE_FONTNAMES "PS=Helvetica-BoldOblique"
_DEC_PRODUCTINFO "DECwindows Fonts V2.2-1, 02-Jan-1991"
DEFAULT_CHAR 32
RELATIVE_SETWIDTH 50
RELATIVE_WEIGHT 70
CHARSET_COLLECTIONS "ASCII ISO10646-1 ADOBE-STANDARD"
FULL_NAME "Helvetica Bold Oblique"
ENDPROPERTIES
CHARS 230
STARTCHAR space
ENCODING 32
SWIDTH 278 0
DWIDTH 6 0
BBX 1 1 0 0
BITMAP
00
ENDCHAR
STARTCHAR exclam
ENCODING 33
SWIDTH 333 0
DWIDTH 8 0
BBX 8 19 2 0
BITMAP
07
07
07
0E
0E
0E
1C
1C
1C
18
18
38
30
30
00
00
E0
E0
E0
ENDCHAR
STARTCHAR quotedbl
ENCODING 34
SWIDTH 474 0
DWIDTH 9 0
BBX 7 5 5 14
BITMAP
66
66
EE
CC
88
ENDCHAR
STARTCHAR numbersign
ENCODING 35
SWIDTH 556 0
DWIDTH 14 0
BBX 14 18 1 0
BITMAP
0198
0198
0198
0330
0330
1FFC
1FFC
0660
0CC0
0CC0
1980
FFE0
FFE0
3300
3300
6600
6600
6600
ENDCHAR
STARTCHAR dollar
ENCODING 36
SWIDTH 556 0
DWIDTH 13 0
BBX 14 21 1 -2
BITMAP
0060
0060
07F0
1FF8
1CDC
38DC
3980
3D80
1F80
0F80
07C0
03E0
06F0
0670
0670
ECF0
EDE0
FFC0
7F80
1800
1800
ENDCHAR
STARTCHAR percent
ENCODING 37
SWIDTH 889 0
DWIDTH 22 0
BBX 16 17 4 0
BITMAP
1E07
3F0E
731C
E338
C770
CE60
FCE0
79C0
0380
071E
073F
0E73
1CE3
38C7
70CE
E0FC
0078
ENDCHAR
STARTCHAR ampersand
ENCODING 38
SWIDTH 722 0
DWIDTH 18 0
BBX 15 18 2 0
BITMAP
01E0
07F0
0738
0E38
0E38
0E70
07E0
07C0
0F80
1F9C
39DC
70F8
E070
E070
E0F0
F1F8
7FDC
3F0E
ENDCHAR
STARTCHAR quoteright
ENCODING 39
SWIDTH 278 0
DWIDTH 7 0
BBX 6 5 4 14
BITMAP
3C
3C
0C
38
E0
ENDCHAR
STARTCHAR parenleft
ENCODING 40
SWIDTH 333 0
DWIDTH 8 0
BBX 10 24 2 -5
BITMAP
01C0
0380
0700
0E00
1C00
1800
3800
3000
7000
7000
E000
E000
E000
E000
E000
E000
E000
E000
E000
E000
7000
7000
3800
1C00
ENDCHAR
STARTCHAR parenright
ENCODING 41
SWIDTH 333 0
DWIDTH 8 0
BBX 10 24 0 -5
BITMAP
0E00
0700
0380
0380
01C0
01C0
01C0
01C0
01C0
01C0
01C0
01C0
01C0
01C0
0380
0380
0300
0700
0600
0E00
1C00
3800
7000
E000
ENDCHAR
STARTCHAR asterisk
ENCODING 42
SWIDTH 389 0
DWIDTH 10 0
BBX 8 7 5 12
BITMAP
18
DB
FF
3C
78
EC
CC
ENDCHAR
STARTCHAR plus
ENCODING 43
SWIDTH 584 0
DWIDTH 15 0
BBX 10 12 4 1
BITMAP
0700
0700
0600
0E00
0E00
FFC0
FFC0
1C00
1C00
1800
3800
3800
ENDCHAR
STARTCHAR comma
ENCODING 44
SWIDTH 278 0
DWIDTH 7 0
BBX 4 6 1 -3
BITMAP
70
70
70
30
60
C0
ENDCHAR
STARTCHAR minus
ENCODING 45
SWIDTH 584 0
DWIDTH 15 0
BBX 11 2 3 6
BITMAP
FFE0
FFE0
ENDCHAR
STARTCHAR period
ENCODING 46
SWIDTH 278 0
DWIDTH 7 0
BBX 3 3 2 0
BITMAP
E0
E0
E0
ENDCHAR
STARTCHAR slash
ENCODING 47
SWIDTH 278 0
DWIDTH 8 0
BBX 11 19 1 0
BITMAP
0060
0060
00C0
00C0
0180
0180
0300
0600
0600
0C00
0C00
1800
1800
3000
3000
6000
6000
C000
C000
ENDCHAR
STARTCHAR zero
ENCODING 48
SWIDTH 556 0
DWIDTH 13 0
BBX 14 18 1 0
BITMAP
03F0
07F8
0F3C
1C1C
1C1C
381C
381C
7038
7038
7038
E038
E070
E070
E0E0
E0E0
73C0
7F80
3F00
ENDCHAR
STARTCHAR one
ENCODING 49
SWIDTH 556 0
DWIDTH 13 0
BBX 7 18 6 0
BITMAP
0E
0E
1E
FC
FC
1C
1C
38
38
38
38
70
70
70
70
E0
E0
E0
ENDCHAR
STARTCHAR two
ENCODING 50
SWIDTH 556 0
DWIDTH 13 0
BBX 15 18 0 0
BITMAP
01F8
07FC
0F1E
1E0E
1C0E
000E
001C
003C
00F8
03E0
0780
0F00
1C00
3800
7000
E000
FFF0
FFF0
ENDCHAR
STARTCHAR three
ENCODING 51
SWIDTH 556 0
DWIDTH 13 0
BBX 13 18 1 0
BITMAP
07E0
0FF0
1C78
3838
3838
3838
0070
00E0
03C0
03E0
00E0
0070
0070
0070
E0F0
F1E0
7FC0
3F00
ENDCHAR
STARTCHAR four
ENCODING 52
SWIDTH 556 0
DWIDTH 13 0
BBX 13 18 1 0
BITMAP
0038
0078
00F8
01F0
03F0
0770
0E70
1C60
38E0
30E0
70E0
E1C0
FFF0
FFF0
01C0
0380
0380
0380
ENDCHAR
STARTCHAR five
ENCODING 53
SWIDTH 556 0
DWIDTH 13 0
BBX 14 18 1 0
BITMAP
0FFC
0FFC
0E00
1C00
1C00
1C00
3FC0
3FE0
38F0
0070
0070
0070
0070
E0F0
E0E0
F3C0
7F80
3F00
ENDCHAR
STARTCHAR six
ENCODING 54
SWIDTH 556 0
DWIDTH 13 0
BBX 14 18 2 0
BITMAP
01F0
07F8
0F3C
1C1C
3800
3800
7000
77C0
7FE0
78F0
F070
E070
E070
E0E0
E1E0
73C0
7F80
3E00
ENDCHAR
STARTCHAR seven
ENCODING 55
SWIDTH 556 0
DWIDTH 13 0
BBX 14 18 2 0
BITMAP
3FFC
3FFC
0038
0070
00E0
01C0
01C0
0380
0700
0700
0E00
1C00
1C00
3800
7000
7000
E000
E000
ENDCHAR
STARTCHAR eight
ENCODING 56
SWIDTH 556 0
DWIDTH 13 0
BBX 13 18 1 0
BITMAP
03E0
07F0
0E78
1C38
1C38
1C38
1E70
0FE0
0FC0
3FE0
78F0
7070
E070
E070
E0E0
71E0
7FC0
1F80
ENDCHAR
STARTCHAR nine
ENCODING 57
SWIDTH 556 0
DWIDTH 13 0
BBX 14 18 1 0
BITMAP
03F0
07F8
0F3C
1C1C
1C1C
381C
383C
3838
3878
3CF8
1FF8
0FF0
0070
00E0
E0E0
F3C0
7F80
3F00
ENDCHAR
STARTCHAR colon
ENCODING 58
SWIDTH 333 0
DWIDTH 8 0
BBX 6 14 3 0
BITMAP
1C
1C
1C
00
00
00
00
00
00
00
00
E0
E0
E0
ENDCHAR
STARTCHAR semicolon
ENCODING 59
SWIDTH 333 0
DWIDTH 8 0
BBX 7 17 2 -3
BITMAP
0E
0E
0E
00
00
00
00
00
00
00
00
70
70
70
30
60
C0
ENDCHAR
STARTCHAR less
ENCODING 60
SWIDTH 584 0
DWIDTH 15 0
BBX 14 11 3 2
BITMAP
001C
0078
01E0
0780
1E00
7800
E000
7800
1E00
0780
01C0
ENDCHAR
STARTCHAR equal
ENCODING 61
SWIDTH 584 0
DWIDTH 14 0
BBX 11 6 3 4
BITMAP
7FE0
7FE0
0000
0000
FFC0
FFC0
ENDCHAR
STARTCHAR greater
ENCODING 62
SWIDTH 584 0
DWIDTH 15 0
BBX 14 11 0 2
BITMAP
0E00
0780
01E0
0078
001C
0078
01E0
0780
1E00
7800
E000
ENDCHAR
STARTCHAR question
ENCODING 63
SWIDTH 611 0
DWIDTH 15 0
BBX 12 19 5 0
BITMAP
0FC0
3FE0
78F0
7070
E070
E0F0
01E0
07C0
0F00
1C00
3800
7000
7000
7000
0000
0000
7000
7000
7000
ENDCHAR
STARTCHAR at
ENCODING 64
SWIDTH 975 0
DWIDTH 24 0
BBX 23 23 2 -4
BITMAP
003FC0
00FFF0
03E078
07801C
0F000C
1E1CCE
1C7FCE
38E78E
71C38E
73830E
E3870E
E7061C
E70E1C
E70C38
E71C38
E39E70
E3FFE0
71E3C0
700000
780000
3E1C00
0FFC00
03F000
ENDCHAR
STARTCHAR A
ENCODING 65
SWIDTH 722 0
DWIDTH 18 0
BBX 16 19 1 0
BITMAP
001C
003C
007C
007C
00EE
01CE
01CE
038E
070E
070E
0E0E
0E0E
1FFE
3FFF
3807
7007
7007
E007
E007
ENDCHAR
STARTCHAR B
ENCODING 66
SWIDTH 722 0
DWIDTH 18 0
BBX 17 19 2 0
BITMAP
0FFE00
0FFF00
0E0780
0E0380
1C0380
1C0380
1C0780
1C0F00
3FFE00
3FFE00
380700
380700
700700
700700
700F00
E01E00
E07C00
FFF800
FFE000
ENDCHAR
STARTCHAR C
ENCODING 67
SWIDTH 722 0
DWIDTH 18 0
BBX 16 19 3 0
BITMAP
01FC
07FE
0F8F
1E07
3807
7800
7000
F000
E000
E000
E000
E000
E000
E00E
F01E
703C
78F8
3FF0
1FC0
ENDCHAR
STARTCHAR D
ENCODING 68
SWIDTH 722 0
DWIDTH 19 0
BBX 18 19 2 0
BITMAP
0FFC00
0FFF00
0E0F80
0E0380
1C01C0
1C01C0
1C01C0
1C01C0
3801C0
3801C0
3801C0
380380
700380
700780
700F00
701E00
E07C00
FFF800
FFE000
ENDCHAR
STARTCHAR E
ENCODING 69
SWIDTH 667 0
DWIDTH 16 0
BBX 16 19 2 0
BITMAP
0FFF
0FFF
0E00
0E00
1C00
1C00
1C00
1C00
3FF8
3FF8
3800
3800
7000
7000
7000
7000
E000
FFF8
FFF8
ENDCHAR
STARTCHAR F
ENCODING 70
SWIDTH 611 0
DWIDTH 15 0
BBX 16 19 2 0
BITMAP
0FFF
0FFF
0E00
0E00
1C00
1C00
1C00
1C00
3FF8
3FF8
3800
3800
7000
7000
7000
7000
E000
E000
E000
ENDCHAR
STARTCHAR G
ENCODING 71
SWIDTH 778 0
DWIDTH 19 0
BBX 17 19 3 0
BITMAP
01FC00
07FE00
0F8F00
1E0700
380700
780000
700000
F00000
E00000
E07F80
E07F80
E00700
E00700
E00F00
F00E00
701E00
787E00
3FFC00
1FCC00
ENDCHAR
STARTCHAR H
ENCODING 72
SWIDTH 722 0
DWIDTH 19 0
BBX 19 19 2 0
BITMAP
0E00E0
0E00E0
0E00E0
0E00E0
1C01C0
1C01C0
1C01C0
1C01C0
3FFF80
3FFF80
380380
380380
700700
700700
700700
700700
E00E00
E00E00
E00E00
ENDCHAR
STARTCHAR I
ENCODING 73
SWIDTH 278 0
DWIDTH 7 0
BBX 7 19 2 0
BITMAP
0E
0E
0E
0E
1C
1C
1C
1C
38
38
38
38
70
70
70
70
E0
E0
E0
ENDCHAR
STARTCHAR J
ENCODING 74
SWIDTH 556 0
DWIDTH 14 0
BBX 14 19 2 0
BITMAP
001C
001C
001C
001C
0038
0038
0038
0038
0070
0070
0070
0070
00E0
E0E0
E1E0
E1C0
E3C0
FF80
7F00
ENDCHAR
STARTCHAR K
ENCODING 75
SWIDTH 722 0
DWIDTH 18 0
BBX 18 19 2 0
BITMAP
0E03C0
0E0780
0E0F00
0E1E00
1C3800
1CF000
1DE000
1FC000
3F8000
3FC000
39E000
38E000
707000
707800
703C00
701C00
E00E00
E00F00
E00700
ENDCHAR
STARTCHAR L
ENCODING 76
SWIDTH 611 0
DWIDTH 15 0
BBX 12 19 2 0
BITMAP
0E00
0E00
0E00
0E00
1C00
1C00
1C00
1C00
3800
3800
3800
3800
7000
7000
7000
7000
E000
FFF0
FFF0
ENDCHAR
STARTCHAR M
ENCODING 77
SWIDTH 833 0
DWIDTH 23 0
BBX 23 19 2 0
BITMAP
0E000E
0E001E
0F003E
0F003E
1F007C
1F80FC
1F81DC
1D81DC
3983B8
39C738
39C738
39CE38
71DC70
71DC70
70F870
70F070
E0F0E0
E0E0E0
E0E0E0
ENDCHAR
STARTCHAR N
ENCODING 78
SWIDTH 722 0
DWIDTH 19 0
BBX 19 19 2 0
BITMAP
0E00E0
0E00E0
0F00E0
0F00E0
1F81C0
1D81C0
1DC1C0
19C1C0
39C380
38E380
38E380
386380
707300
707700
703700
703F00
E01E00
E01E00
E00E00
ENDCHAR
STARTCHAR O
ENCODING 79
SWIDTH 778 0
DWIDTH 19 0
BBX 17 19 3 0
BITMAP
01FC00
07FE00
0F8F00
1E0700
380780
780380
700380
F00380
E00380
E00380
E00380
E00780
E00700
E00F00
F01E00
703C00
78F800
3FF000
1FC000
ENDCHAR
STARTCHAR P
ENCODING 80
SWIDTH 667 0
DWIDTH 17 0
BBX 17 19 2 0
BITMAP
0FFE00
0FFF00
0E0780
0E0380
1C0380
1C0380
1C0700
1C0F00
3FFE00
3FF800
380000
380000
700000
700000
700000
700000
E00000
E00000
E00000
ENDCHAR
STARTCHAR Q
ENCODING 81
SWIDTH 778 0
DWIDTH 19 0
BBX 17 19 3 0
BITMAP
01FC00
07FE00
0F8F00
1E0700
380780
780380
700380
F00380
E00380
E00380
E00380
E00780
E00700
E00F00
F1EE00
70FC00
787800
3FFC00
1FDE00
ENDCHAR
STARTCHAR R
ENCODING 82
SWIDTH 722 0
DWIDTH 17 0
BBX 17 19 2 0
BITMAP
0FFE00
0FFF00
0E0780
0E0380
1C0380
1C0380
1C0700
1C0F00
3FFE00
3FFC00
381E00
380E00
700E00
700E00
700E00
700E00
E01C00
E01C00
E01C00
ENDCHAR
STARTCHAR S
ENCODING 83
SWIDTH 667 0
DWIDTH 17 0
BBX 16 19 2 0
BITMAP
00FC
03FE
078F
0E07
1C07
1C00
1E00
0F80
07F0
01FC
003E
000E
000E
E00E
E01E
F03C
7CF8
3FF0
0FC0
ENDCHAR
STARTCHAR T
ENCODING 84
SWIDTH 611 0
DWIDTH 15 0
BBX 15 19 4 0
BITMAP
FFFE
FFFE
0380
0380
0700
0700
0700
0700
0E00
0E00
0E00
0E00
1C00
1C00
1C00
1C00
3800
3800
3800
ENDCHAR
STARTCHAR U
ENCODING 85
SWIDTH 722 0
DWIDTH 19 0
BBX 18 19 3 0
BITMAP
1C01C0
1C01C0
1C01C0
1C01C0
380380
380380
380380
380380
700700
700700
700700
700F00
E00E00
E01E00
E01C00
F03C00
78F800
7FF000
1FC000
ENDCHAR
STARTCHAR V
ENCODING 86
SWIDTH 667 0
DWIDTH 18 0
BBX 16 19 5 0
BITMAP
E007
E007
E00E
E00E
E01C
701C
7038
7070
7070
70E0
70E0
71C0
7180
3380
3700
3F00
3E00
3C00
3C00
ENDCHAR
STARTCHAR W
ENCODING 87
SWIDTH 944 0
DWIDTH 23 0
BBX 21 19 5 0
BITMAP
E07038
E07038
E07070
E0F070
E0F0E0
E0F0E0
E1F0E0
E1F1C0
E3F1C0
E37380
E77380
E67380
EE7700
7C3700
7C3E00
783E00
783C00
703800
703800
ENDCHAR
STARTCHAR X
ENCODING 88
SWIDTH 667 0
DWIDTH 18 0
BBX 20 19 1 0
BITMAP
0E0070
0F00F0
0701E0
0783C0
038780
01CF00
01FC00
00F800
00F000
00F000
01F800
03B800
073C00
0E1C00
1E1E00
3C0E00
780F00
F00700
E00700
ENDCHAR
STARTCHAR Y
ENCODING 89
SWIDTH 667 0
DWIDTH 17 0
BBX 16 19 5 0
BITMAP
E00F
E01E
E03C
7078
7070
70E0
39C0
39C0
3B80
3F00
1F00
1E00
1C00
1C00
1C00
3800
3800
3800
3800
ENDCHAR
STARTCHAR Z
ENCODING 90
SWIDTH 611 0
DWIDTH 16 0
BBX 18 19 1 0
BITMAP
0FFFC0
0FFFC0
0003C0
000780
000F00
001E00
003C00
007800
00F000
01E000
03C000
078000
0F0000
1E0000
3C0000
780000
F00000
FFFE00
FFFE00
ENDCHAR
STARTCHAR bracketleft
ENCODING 91
SWIDTH 333 0
DWIDTH 8 0
BBX 10 24 0 -5
BITMAP
07C0
07C0
0700
0700
0E00
0E00
0E00
0E00
1C00
1C00
1C00
1C00
3800
3800
3800
3800
7000
7000
7000
7000
E000
E000
F800
F800
ENDCHAR
STARTCHAR backslash
ENCODING 92
SWIDTH 278 0
DWIDTH 8 0
BBX 3 19 5 0
BITMAP
C0
C0
C0
C0
C0
C0
C0
C0
C0
C0
60
60
60
60
60
60
60
60
60
ENDCHAR
STARTCHAR bracketright
ENCODING 93
SWIDTH 333 0
DWIDTH 8 0
BBX 10 24 1 -5
BITMAP
07C0
07C0
01C0
01C0
0380
0380
0380
0380
0700
0700
0700
0700
0E00
0E00
0E00
0E00
1C00
1C00
1C00
1C00
3800
3800
F800
F800
ENDCHAR
STARTCHAR asciicircum
ENCODING 94
SWIDTH 584 0
DWIDTH 14 0
BBX 12 9 3 10
BITMAP
0180
0380
07C0
0EC0
1CE0
1860
3870
7030
E030
ENDCHAR
STARTCHAR underscore
ENCODING 95
SWIDTH 556 0
DWIDTH 14 0
BBX 14 2 -1 -5
BITMAP
FFFC
FFFC
ENDCHAR
STARTCHAR quoteleft
ENCODING 96
SWIDTH 278 0
DWIDTH 7 0
BBX 6 5 4 14
BITMAP
1C
70
C0
F0
F0
ENDCHAR
STARTCHAR a
ENCODING 97
SWIDTH 556 0
DWIDTH 14 0
BBX 12 14 2 0
BITMAP
07E0
1FF0
3C70
3870
00F0
07E0
1FE0
3CE0
70E0
E0E0
E1C0
E7C0
FFC0
79C0
ENDCHAR
STARTCHAR b
ENCODING 98
SWIDTH 611 0
DWIDTH 15 0
BBX 14 19 2 0
BITMAP
0E00
0E00
0E00
0E00
1C00
1DF0
1FF8
1F38
3C1C
381C
381C
381C
7038
7038
7070
7070
F9E0
FFC0
EF80
ENDCHAR
STARTCHAR c
ENCODING 99
SWIDTH 556 0
DWIDTH 13 0
BBX 12 14 2 0
BITMAP
03C0
0FE0
1E70
3830
7000
7000
E000
E000
E000
E000
E0E0
73C0
7F80
1E00
ENDCHAR
STARTCHAR d
ENCODING 100
SWIDTH 611 0
DWIDTH 15 0
BBX 15 19 2 0
BITMAP
000E
000E
000E
000E
001C
03DC
0FFC
1E7C
3838
7038
7038
E038
E038
E070
E070
E0F0
73E0
7FE0
1EE0
ENDCHAR
STARTCHAR e
ENCODING 101
SWIDTH 556 0
DWIDTH 14 0
BBX 13 14 2 0
BITMAP
03E0
0FF0
1E70
3838
7038
7038
FFF8
FFF0
E000
E000
E0E0
73C0
7F80
1E00
ENDCHAR
STARTCHAR f
ENCODING 102
SWIDTH 333 0
DWIDTH 9 0
BBX 9 19 3 0
BITMAP
0780
0F80
0E00
1C00
1C00
7F00
7F00
1C00
3800
3800
3800
3800
7000
7000
7000
7000
E000
E000
E000
ENDCHAR
STARTCHAR g
ENCODING 103
SWIDTH 611 0
DWIDTH 15 0
BBX 16 19 0 -5
BITMAP
00F7
03FF
079F
0E0E
1C0E
1C0E
380E
381C
381C
381C
383C
1CF8
1FF8
07B8
0038
E070
F0E0
7FE0
1F80
ENDCHAR
STARTCHAR h
ENCODING 104
SWIDTH 611 0
DWIDTH 15 0
BBX 13 19 2 0
BITMAP
0E00
0E00
0E00
0E00
1C00
1DE0
1FF0
1E38
3C38
3838
3838
3838
7070
7070
7070
7070
E0E0
E0E0
E0E0
ENDCHAR
STARTCHAR i
ENCODING 105
SWIDTH 278 0
DWIDTH 7 0
BBX 7 19 2 0
BITMAP
0E
0E
0E
00
00
1C
1C
1C
38
38
38
38
70
70
70
70
E0
E0
E0
ENDCHAR
STARTCHAR j
ENCODING 106
SWIDTH 278 0
DWIDTH 7 0
BBX 10 24 -1 -5
BITMAP
01C0
01C0
01C0
0000
0000
0380
0380
0380
0700
0700
0700
0700
0E00
0E00
0E00
0E00
1C00
1C00
1C00
3800
3800
3800
F000
F000
ENDCHAR
STARTCHAR k
ENCODING 107
SWIDTH 556 0
DWIDTH 14 0
BBX 13 19 2 0
BITMAP
0E00
0E00
0E00
0E00
1C00
1C38
1C70
1CE0
39C0
3F80
3F00
3F80
7380
71C0
71C0
70E0
E0E0
E070
E070
ENDCHAR
STARTCHAR l
ENCODING 108
SWIDTH 278 0
DWIDTH 7 0
BBX 7 19 2 0
BITMAP
0E
0E
0E
0E
1C
1C
1C
1C
38
38
38
38
70
70
70
70
E0
E0
E0
ENDCHAR
STARTCHAR m
ENCODING 109
SWIDTH 889 0
DWIDTH 21 0
BBX 19 14 2 0
BITMAP
1DE7C0
1FFFE0
1E7CE0
3C78E0
3870E0
3870E0
3870E0
70E1C0
70E1C0
70E1C0
70E1C0
E1C380
E1C380
E1C380
ENDCHAR
STARTCHAR n
ENCODING 110
SWIDTH 611 0
DWIDTH 15 0
BBX 13 14 2 0
BITMAP
1DE0
1FF0
1E38
3C38
3838
3838
3838
7070
7070
7070
7070
E0E0
E0E0
E0E0
ENDCHAR
STARTCHAR o
ENCODING 111
SWIDTH 611 0
DWIDTH 14 0
BBX 13 14 2 0
BITMAP
03C0
0FF0
1E70
3838
7038
7038
E038
E038
E070
E070
E0E0
73C0
7F80
1E00
ENDCHAR
STARTCHAR p
ENCODING 112
SWIDTH 611 0
DWIDTH 15 0
BBX 15 19 1 -5
BITMAP
0EF0
0FFC
0F9C
1E0E
1C0E
1C0E
380E
380E
381C
381C
3838
7CF0
7FE0
7780
7000
E000
E000
E000
E000
ENDCHAR
STARTCHAR q
ENCODING 113
SWIDTH 611 0
DWIDTH 15 0
BBX 14 19 2 -5
BITMAP
03DC
0FFC
1E7C
3838
7038
7038
E038
E038
E070
E070
E0F0
73E0
7FE0
1EE0
00E0
01C0
01C0
01C0
01C0
ENDCHAR
STARTCHAR r
ENCODING 114
SWIDTH 389 0
DWIDTH 10 0
BBX 10 14 2 0
BITMAP
1CC0
1DC0
1FC0
3E00
3C00
3800
3800
7000
7000
7000
7000
E000
E000
E000
ENDCHAR
STARTCHAR s
ENCODING 115
SWIDTH 556 0
DWIDTH 13 0
BBX 12 14 2 0
BITMAP
0FC0
3FE0
78F0
7070
7000
7C00
3F00
0FC0
01E0
E0E0
E0E0
F1E0
7FC0
3F00
ENDCHAR
STARTCHAR t
ENCODING 116
SWIDTH 333 0
DWIDTH 9 0
BBX 8 18 3 0
BITMAP
0E
0E
0E
1C
7F
7F
1C
38
38
38
38
70
70
70
E0
E0
F8
78
ENDCHAR
STARTCHAR u
ENCODING 117
SWIDTH 611 0
DWIDTH 15 0
BBX 13 14 3 0
BITMAP
3838
3838
3838
7070
7070
7070
7070
E0E0
E0E0
E1E0
E3E0
E7C0
7DC0
39C0
ENDCHAR
STARTCHAR v
ENCODING 118
SWIDTH 556 0
DWIDTH 14 0
BBX 12 14 4 0
BITMAP
E070
E0F0
E0E0
E1C0
E1C0
E380
E380
E700
E700
EE00
7C00
7C00
7800
7000
ENDCHAR
STARTCHAR w
ENCODING 119
SWIDTH 778 0
DWIDTH 19 0
BBX 19 14 3 0
BITMAP
E0E0E0
E1E0E0
E1E1C0
E3E380
E36380
E76700
E66700
EE6E00
EC6C00
7C7C00
787800
787800
707000
707000
ENDCHAR
STARTCHAR x
ENCODING 120
SWIDTH 556 0
DWIDTH 13 0
BBX 14 14 1 0
BITMAP
1C1C
1C38
0E70
0EE0
07C0
0780
0380
0780
0FC0
1CC0
38E0
70E0
E070
C070
ENDCHAR
STARTCHAR y
ENCODING 121
SWIDTH 556 0
DWIDTH 14 0
BBX 14 19 2 -5
BITMAP
701C
701C
7038
7038
3870
3870
38E0
38E0
1DC0
1DC0
1F80
0F00
0F00
0E00
0E00
1C00
3800
F800
F000
ENDCHAR
STARTCHAR z
ENCODING 122
SWIDTH 500 0
DWIDTH 13 0
BBX 13 14 1 0
BITMAP
1FF8
1FF8
0070
00E0
01C0
0380
0700
0E00
1C00
3800
7000
E000
FFE0
FFE0
ENDCHAR
STARTCHAR braceleft
ENCODING 123
SWIDTH 389 0
DWIDTH 10 0
BBX 10 24 3 -5
BITMAP
03C0
07C0
0E00
0C00
1C00
1800
1800
1800
1800
3800
F000
E000
3000
3000
3000
3000
6000
6000
6000
C000
C000
C000
F800
7800
ENDCHAR
STARTCHAR bar
ENCODING 124
SWIDTH 280 0
DWIDTH 7 0
BBX 8 24 1 -5
BITMAP
03
03
07
06
06
0E
0E
0C
0C
1C
1C
18
18
38
38
30
30
70
70
60
60
E0
C0
C0
ENDCHAR
STARTCHAR braceright
ENCODING 125
SWIDTH 389 0
DWIDTH 10 0
BBX 10 24 1 -5
BITMAP
0780
07C0
00C0
00C0
00C0
0180
0180
0180
0380
0300
03C0
01C0
0300
0300
0300
0600
0600
0600
0600
0E00
0C00
1C00
F800
F000
ENDCHAR
STARTCHAR asciitilde
ENCODING 126
SWIDTH 584 0
DWIDTH 14 0
BBX 12 4 2 5
BITMAP
3C30
7E70
E7E0
C3C0
ENDCHAR
STARTCHAR space
ENCODING 160
SWIDTH 278 0
DWIDTH 6 0
BBX 1 1 0 0
BITMAP
00
ENDCHAR
STARTCHAR exclamdown
ENCODING 161
SWIDTH 333 0
DWIDTH 8 0
BBX 8 19 1 -5
BITMAP
07
07
07
00
00
0C
0C
1C
18
18
38
38
38
70
70
70
E0
E0
E0
ENDCHAR
STARTCHAR cent
ENCODING 162
SWIDTH 556 0
DWIDTH 14 0
BBX 13 18 2 -2
BITMAP
0030
0070
07E0
0FF0
1EF8
3998
7180
7300
E300
E600
E600
EC00
ECE0
79C0
7F80
3F00
7000
6000
ENDCHAR
STARTCHAR sterling
ENCODING 163
SWIDTH 556 0
DWIDTH 14 0
BBX 14 18 1 0
BITMAP
01F0
03F8
071C
0E0C
0E00
0E00
0700
0700
3FF0
3FF0
0700
0E00
0E00
1C00
3800
7738
FFF8
F9F0
ENDCHAR
STARTCHAR currency
ENCODING 164
SWIDTH 556 0
DWIDTH 14 0
BBX 14 12 2 3
BITMAP
300C
3BDC
1FF8
0E70
1C70
3870
3870
38E0
39C0
7FE0
EF70
C030
ENDCHAR
STARTCHAR yen
ENCODING 165
SWIDTH 556 0
DWIDTH 14 0
BBX 16 18 2 0
BITMAP
3807
380E
381C
1838
1C70
1CE0
0DC0
0F80
7FF0
7FF0
0700
FFE0
FFE0
0E00
0E00
1C00
1C00
1C00
ENDCHAR
STARTCHAR brokenbar
ENCODING 166
SWIDTH 280 0
DWIDTH 7 0
BBX 8 23 1 -4
BITMAP
07
07
07
07
0E
0E
0E
1C
1C
1C
00
00
00
38
38
38
78
70
70
E0
E0
E0
E0
ENDCHAR
STARTCHAR section
ENCODING 167
SWIDTH 556 0
DWIDTH 14 0
BBX 15 24 1 -5
BITMAP
01F8
03FC
079C
070E
070E
0700
0380
0FC0
1FE0
3CF0
3870
3838
3838
1C38
1E78
0FF0
07E0
03C0
01C0
E1C0
E1C0
7380
7F80
3F00
ENDCHAR
STARTCHAR dieresis
ENCODING 168
SWIDTH 333 0
DWIDTH 10 0
BBX 8 2 5 16
BITMAP
E7
E7
ENDCHAR
STARTCHAR copyright
ENCODING 169
SWIDTH 737 0
DWIDTH 19 0
BBX 17 17 3 0
BITMAP
03F800
0F1E00
1C0700
380300
71F380
631980
E61980
CC0180
CC0180
CC0180
CC3380
CE6300
E7C700
600E00
701C00
3C7800
0FE000
ENDCHAR
STARTCHAR ordfeminine
ENCODING 170
SWIDTH 370 0
DWIDTH 10 0
BBX 9 12 3 7
BITMAP
1F00
3F80
3180
0F80
3F00
7300
6700
7F00
3B00
0000
FF00
FF00
ENDCHAR
STARTCHAR guillemotleft
ENCODING 171
SWIDTH 556 0
DWIDTH 13 0
BBX 10 8 3 3
BITMAP
1DC0
3B80
7700
EE00
CC00
EE00
7700
3B80
ENDCHAR
STARTCHAR logicalnot
ENCODING 172
SWIDTH 584 0
DWIDTH 15 0
BBX 12 7 3 3
BITMAP
FFF0
FFF0
0030
0030
0060
0060
0060
ENDCHAR
STARTCHAR hyphen
ENCODING 173
SWIDTH 333 0
DWIDTH 10 0
BBX 8 2 2 6
BITMAP
FF
FF
ENDCHAR
STARTCHAR registered
ENCODING 174
SWIDTH 737 0
DWIDTH 19 0
BBX 17 17 3 0
BITMAP
03F800
0F1E00
1C0700
380300
73F380
631980
E31980
C63180
C7E180
CCC180
CC6380
D83300
D83700
600E00
701C00
3C7800
0FE000
ENDCHAR
STARTCHAR macron
ENCODING 175
SWIDTH 333 0
DWIDTH 9 0
BBX 7 2 5 16
BITMAP
FE
FE
ENDCHAR
STARTCHAR degree
ENCODING 176
SWIDTH 400 0
DWIDTH 9 0
BBX 8 7 3 11
BITMAP
3C
66
C3
C3
C3
66
3C
ENDCHAR
STARTCHAR plusminus
ENCODING 177
SWIDTH 584 0
DWIDTH 15 0
BBX 12 13 2 0
BITMAP
01C0
01C0
0380
0380
3FF0
3FF0
0700
0700
0E00
0E00
0000
FFC0
FFC0
ENDCHAR
STARTCHAR twosuperior
ENCODING 178
SWIDTH 333 0
DWIDTH 7 0
BBX 7 10 2 8
BITMAP
1C
3E
66
06
0E
3C
70
E0
FC
FC
ENDCHAR
STARTCHAR threesuperior
ENCODING 179
SWIDTH 333 0
DWIDTH 7 0
BBX 8 10 2 8
BITMAP
1E
3F
63
06
1C
1E
06
C6
FC
78
ENDCHAR
STARTCHAR acute
ENCODING 180
SWIDTH 333 0
DWIDTH 8 0
BBX 6 4 5 15
BITMAP
1C
38
70
E0
ENDCHAR
STARTCHAR mu
ENCODING 181
SWIDTH 611 0
DWIDTH 15 0
BBX 15 19 1 -5
BITMAP
0E0E
0E0E
0E0E
1C1C
1C1C
1C1C
1C1C
3838
3838
3878
3878
7CF0
7FF0
6730
6000
E000
E000
E000
E000
ENDCHAR
STARTCHAR paragraph
ENCODING 182
SWIDTH 556 0
DWIDTH 13 0
BBX 13 24 4 -5
BITMAP
03F8
0FF8
3E60
7E60
7CC0
FCC0
FCC0
FCC0
F980
F980
7980
7980
3300
3300
3300
3300
6600
6600
6600
6600
CC00
CC00
CC00
CC00
ENDCHAR
STARTCHAR periodcentered
ENCODING 183
SWIDTH 278 0
DWIDTH 7 0
BBX 3 3 4 6
BITMAP
E0
E0
E0
ENDCHAR
STARTCHAR cedilla
ENCODING 184
SWIDTH 333 0
DWIDTH 9 0
BBX 6 6 3 -5
BITMAP
70
38
1C
CC
F8
70
ENDCHAR
STARTCHAR onesuperior
ENCODING 185
SWIDTH 333 0
DWIDTH 7 0
BBX 4 10 4 8
BITMAP
30
30
F0
F0
60
60
60
C0
C0
C0
ENDCHAR
STARTCHAR ordmasculine
ENCODING 186
SWIDTH 365 0
DWIDTH 10 0
BBX 9 12 3 7
BITMAP
0F00
1F80
3980
3180
6180
6300
6700
7E00
3C00
0000
FF00
FF00
ENDCHAR
STARTCHAR guillemotright
ENCODING 187
SWIDTH 556 0
DWIDTH 13 0
BBX 10 8 2 3
BITMAP
7700
3B80
1DC0
0CC0
1DC0
3B80
7700
EE00
ENDCHAR
STARTCHAR onequarter
ENCODING 188
SWIDTH 834 0
DWIDTH 19 0
BBX 15 18 4 0
BITMAP
3018
3038
F070
F060
60E0
61C0
6180
C380
C706
C60E
0E1E
1C3C
186C
38CC
71FE
61FE
E018
C018
ENDCHAR
STARTCHAR onehalf
ENCODING 189
SWIDTH 834 0
DWIDTH 19 0
BBX 16 18 4 0
BITMAP
3018
3038
F070
F060
60E0
61C0
6180
C380
C70E
C61F
0E33
1C03
1807
381E
7038
6070
E07E
C07E
ENDCHAR
STARTCHAR threequarters
ENCODING 190
SWIDTH 834 0
DWIDTH 19 0
BBX 17 18 2 0
BITMAP
1E0300
3F0700
630E00
060C00
1C1C00
1E3800
063000
C67000
FCE180
78C380
01C780
038F00
031B00
073300
0E7F80
0C7F80
1C0600
180600
ENDCHAR
STARTCHAR questiondown
ENCODING 191
SWIDTH 611 0
DWIDTH 15 0
BBX 12 19 1 -5
BITMAP
00E0
00E0
00E0
0000
0000
00E0
00E0
00E0
01C0
0380
0F00
3E00
7800
F070
E070
E0E0
F1E0
7FC0
3F00
ENDCHAR
STARTCHAR Agrave
ENCODING 192
SWIDTH 722 0
DWIDTH 18 0
BBX 16 24 1 0
BITMAP
01C0
00E0
0070
0038
0000
001C
003C
007C
007C
00EE
01CE
01CE
038E
070E
070E
0E0E
0E0E
1FFE
3FFF
3807
7007
7007
E007
E007
ENDCHAR
STARTCHAR Aacute
ENCODING 193
SWIDTH 722 0
DWIDTH 18 0
BBX 18 24 1 0
BITMAP
0001C0
000380
000700
000E00
000000
001C00
003C00
007C00
007C00
00EE00
01CE00
01CE00
038E00
070E00
070E00
0E0E00
0E0E00
1FFE00
3FFF00
380700
700700
700700
E00700
E00700
ENDCHAR
STARTCHAR Acircumflex
ENCODING 194
SWIDTH 722 0
DWIDTH 18 0
BBX 17 24 1 0
BITMAP
001C00
003E00
007700
00E380
000000
001C00
003C00
007C00
007C00
00EE00
01CE00
01CE00
038E00
070E00
070E00
0E0E00
0E0E00
1FFE00
3FFF00
380700
700700
700700
E00700
E00700
ENDCHAR
STARTCHAR Atilde
ENCODING 195
SWIDTH 722 0
DWIDTH 18 0
BBX 17 23 1 0
BITMAP
007980
00FF80
00CF00
000000
001C00
003C00
007C00
007C00
00EE00
01CE00
01CE00
038E00
070E00
070E00
0E0E00
0E0E00
1FFE00
3FFF00
380700
700700
700700
E00700
E00700
ENDCHAR
STARTCHAR Adieresis
ENCODING 196
SWIDTH 722 0
DWIDTH 18 0
BBX 16 23 1 0
BITMAP
00E7
00E7
0000
0000
001C
003C
007C
007C
00EE
01CE
01CE
038E
070E
070E
0E0E
0E0E
1FFE
3FFF
3807
7007
7007
E007
E007
ENDCHAR
STARTCHAR Aring
ENCODING 197
SWIDTH 722 0
DWIDTH 18 0
BBX 16 24 1 0
BITMAP
001E
0033
0033
0033
001E
001C
003C
007C
007C
00EE
01CE
01CE
038E
070E
070E
0E0E
0E0E
1FFE
3FFF
3807
7007
7007
E007
E007
ENDCHAR
STARTCHAR AE
ENCODING 198
SWIDTH 1000 0
DWIDTH 24 0
BBX 26 19 0 0
BITMAP
001FFFC0
003FFFC0
007B8000
00778000
00E70000
01C70000
01C70000
03870000
070FFE00
070FFE00
0E0E0000
0E0E0000
1FFC0000
3FFC0000
381C0000
701C0000
70380000
E03FFE00
E03FFE00
ENDCHAR
STARTCHAR Ccedilla
ENCODING 199
SWIDTH 722 0
DWIDTH 18 0
BBX 16 24 3 -5
BITMAP
01FC
07FE
0F8F
1E07
3807
7800
7000
F000
E000
E000
E000
E000
E000
E00E
F01E
703C
78F8
3FF0
1FC0
0700
0380
1980
1F00
0E00
ENDCHAR
STARTCHAR Egrave
ENCODING 200
SWIDTH 667 0
DWIDTH 16 0
BBX 16 24 2 0
BITMAP
0700
0380
01C0
00E0
0000
0FFF
0FFF
0E00
0E00
1C00
1C00
1C00
1C00
3FF8
3FF8
3800
3800
7000
7000
7000
7000
E000
FFF8
FFF8
ENDCHAR
STARTCHAR Eacute
ENCODING 201
SWIDTH 667 0
DWIDTH 16 0
BBX 16 24 2 0
BITMAP
001C
0038
0070
00E0
0000
0FFF
0FFF
0E00
0E00
1C00
1C00
1C00
1C00
3FF8
3FF8
3800
3800
7000
7000
7000
7000
E000
FFF8
FFF8
ENDCHAR
STARTCHAR Ecircumflex
ENCODING 202
SWIDTH 667 0
DWIDTH 16 0
BBX 16 24 2 0
BITMAP
0070
00F8
01DC
038E
0000
0FFF
0FFF
0E00
0E00
1C00
1C00
1C00
1C00
3FF8
3FF8
3800
3800
7000
7000
7000
7000
E000
FFF8
FFF8
ENDCHAR
STARTCHAR Edieresis
ENCODING 203
SWIDTH 667 0
DWIDTH 16 0
BBX 16 23 2 0
BITMAP
01CE
01CE
0000
0000
0FFF
0FFF
0E00
0E00
1C00
1C00
1C00
1C00
3FF8
3FF8
3800
3800
7000
7000
7000
7000
E000
FFF8
FFF8
ENDCHAR
STARTCHAR Igrave
ENCODING 204
SWIDTH 278 0
DWIDTH 7 0
BBX 8 24 2 0
BITMAP
38
1C
0E
07
00
0E
0E
0E
0E
1C
1C
1C
1C
38
38
38
38
70
70
70
70
E0
E0
E0
ENDCHAR
STARTCHAR Iacute
ENCODING 205
SWIDTH 278 0
DWIDTH 7 0
BBX 10 24 2 0
BITMAP
01C0
0380
0700
0E00
0000
0E00
0E00
0E00
0E00
1C00
1C00
1C00
1C00
3800
3800
3800
3800
7000
7000
7000
7000
E000
E000
E000
ENDCHAR
STARTCHAR Icircumflex
ENCODING 206
SWIDTH 278 0
DWIDTH 7 0
BBX 10 24 2 0
BITMAP
0E00
1F00
3B80
71C0
0000
0E00
0E00
0E00
0E00
1C00
1C00
1C00
1C00
3800
3800
3800
3800
7000
7000
7000
7000
E000
E000
E000
ENDCHAR
STARTCHAR Idieresis
ENCODING 207
SWIDTH 278 0
DWIDTH 7 0
BBX 10 23 2 0
BITMAP
39C0
39C0
0000
0000
0E00
0E00
0E00
0E00
1C00
1C00
1C00
1C00
3800
3800
3800
3800
7000
7000
7000
7000
E000
E000
E000
ENDCHAR
STARTCHAR Eth
ENCODING 208
SWIDTH 722 0
DWIDTH 19 0
BBX 18 19 2 0
BITMAP
0FFC00
0FFF00
0E0F80
0E0380
1C01C0
1C01C0
1C01C0
1C01C0
FF81C0
FF81C0
3801C0
380380
700380
700780
700F00
701E00
E07C00
FFF800
FFE000
ENDCHAR
STARTCHAR Ntilde
ENCODING 209
SWIDTH 722 0
DWIDTH 19 0
BBX 19 23 2 0
BITMAP
007980
00FF80
00CF00
000000
0E00E0
0E00E0
0F00E0
0F00E0
1F81C0
1D81C0
1DC1C0
19C1C0
39C380
38E380
38E380
386380
707300
707700
703700
703F00
E01E00
E01E00
E00E00
ENDCHAR
STARTCHAR Ograve
ENCODING 210
SWIDTH 778 0
DWIDTH 19 0
BBX 17 24 3 0
BITMAP
01C000
00E000
007000
003800
000000
01FC00
07FE00
0F8F00
1E0700
380780
780380
700380
F00380
E00380
E00380
E00380
E00780
E00700
E00F00
F01E00
703C00
78F800
3FF000
1FC000
ENDCHAR
STARTCHAR Oacute
ENCODING 211
SWIDTH 778 0
DWIDTH 19 0
BBX 17 24 3 0
BITMAP
000E00
001C00
003800
007000
000000
01FC00
07FE00
0F8F00
1E0700
380780
780380
700380
F00380
E00380
E00380
E00380
E00780
E00700
E00F00
F01E00
703C00
78F800
3FF000
1FC000
ENDCHAR
STARTCHAR Ocircumflex
ENCODING 212
SWIDTH 778 0
DWIDTH 19 0
BBX 17 24 3 0
BITMAP
007000
00F800
01DC00
038E00
000000
01FC00
07FE00
0F8F00
1E0700
380780
780380
700380
F00380
E00380
E00380
E00380
E00780
E00700
E00F00
F01E00
703C00
78F800
3FF000
1FC000
ENDCHAR
STARTCHAR Otilde
ENCODING 213
SWIDTH 778 0
DWIDTH 19 0
BBX 17 23 3 0
BITMAP
01E600
03FE00
033C00
000000
01FC00
07FE00
0F8F00
1E0700
380780
780380
700380
F00380
E00380
E00380
E00380
E00780
E00700
E00F00
F01E00
703C00
78F800
3FF000
1FC000
ENDCHAR
STARTCHAR Odieresis
ENCODING 214
SWIDTH 778 0
DWIDTH 19 0
BBX 17 23 3 0
BITMAP
01CE00
01CE00
000000
000000
01FC00
07FE00
0F8F00
1E0700
380780
780380
700380
F00380
E00380
E00380
E00380
E00780
E00700
E00F00
F01E00
703C00
78F800
3FF000
1FC000
ENDCHAR
STARTCHAR multiply
ENCODING 215
SWIDTH 584 0
DWIDTH 15 0
BBX 13 12 2 1
BITMAP
6018
7038
3870
1CE0
0FC0
0780
0F00
1F80
39C0
70E0
E070
C030
ENDCHAR
STARTCHAR Oslash
ENCODING 216
SWIDTH 778 0
DWIDTH 19 0
BBX 20 19 1 0
BITMAP
007F30
01FFE0
03E3C0
0781E0
0E03E0
1E06E0
1C0CE0
3C18E0
3830E0
3860E0
38C0E0
3981E0
3B01C0
3E03C0
3C0780
380F00
3C3E00
6FFC00
C7F000
ENDCHAR
STARTCHAR Ugrave
ENCODING 217
SWIDTH 722 0
DWIDTH 19 0
BBX 18 24 3 0
BITMAP
01C000
00E000
007000
003800
000000
1C01C0
1C01C0
1C01C0
1C01C0
380380
380380
380380
380380
700700
700700
700700
700F00
E00E00
E01E00
E01C00
F03C00
78F800
7FF000
1FC000
ENDCHAR
STARTCHAR Uacute
ENCODING 218
SWIDTH 722 0
DWIDTH 19 0
BBX 18 24 3 0
BITMAP
000E00
001C00
003800
007000
000000
1C01C0
1C01C0
1C01C0
1C01C0
380380
380380
380380
380380
700700
700700
700700
700F00
E00E00
E01E00
E01C00
F03C00
78F800
7FF000
1FC000
ENDCHAR
STARTCHAR Ucircumflex
ENCODING 219
SWIDTH 722 0
DWIDTH 19 0
BBX 18 24 3 0
BITMAP
007000
00F800
01DC00
038E00
000000
1C01C0
1C01C0
1C01C0
1C01C0
380380
380380
380380
380380
700700
700700
700700
700F00
E00E00
E01E00
E01C00
F03C00
78F800
7FF000
1FC000
ENDCHAR
STARTCHAR Udieresis
ENCODING 220
SWIDTH 722 0
DWIDTH 19 0
BBX 18 23 3 0
BITMAP
01CE00
01CE00
000000
000000
1C01C0
1C01C0
1C01C0
1C01C0
380380
380380
380380
380380
700700
700700
700700
700F00
E00E00
E01E00
E01C00
F03C00
78F800
7FF000
1FC000
ENDCHAR
STARTCHAR Yacute
ENCODING 221
SWIDTH 667 0
DWIDTH 17 0
BBX 16 24 5 0
BITMAP
0070
00E0
01C0
0380
0000
E00F
E01E
E03C
7078
7070
70E0
39C0
39C0
3B80
3F00
1F00
1E00
1C00
1C00
1C00
3800
3800
3800
3800
ENDCHAR
STARTCHAR Thorn
ENCODING 222
SWIDTH 667 0
DWIDTH 17 0
BBX 16 19 2 0
BITMAP
0E00
0E00
0E00
0E00
1FFC
1FFE
1C0F
1C07
3C07
3C07
380E
381E
7FFC
7FF0
7000
7000
E000
E000
E000
ENDCHAR
STARTCHAR germandbls
ENCODING 223
SWIDTH 611 0
DWIDTH 14 0
BBX 13 19 2 0
BITMAP
01E0
07F0
0770
0E38
0C38
1C38
1C70
1CF0
39C0
39E0
38E0
3870
7070
7070
7070
70E0
E1E0
E7C0
E700
ENDCHAR
STARTCHAR agrave
ENCODING 224
SWIDTH 556 0
DWIDTH 14 0
BBX 12 19 2 0
BITMAP
0E00
0700
0380
01C0
0000
07E0
1FF0
3C70
3870
00F0
07E0
1FE0
3CE0
70E0
E0E0
E1C0
E7C0
FFC0
79C0
ENDCHAR
STARTCHAR aacute
ENCODING 225
SWIDTH 556 0
DWIDTH 14 0
BBX 12 19 2 0
BITMAP
0070
00E0
01C0
0380
0000
07E0
1FF0
3C70
3870
00F0
07E0
1FE0
3CE0
70E0
E0E0
E1C0
E7C0
FFC0
79C0
ENDCHAR
STARTCHAR acircumflex
ENCODING 226
SWIDTH 556 0
DWIDTH 14 0
BBX 12 19 2 0
BITMAP
0380
07C0
0EE0
1C70
0000
07E0
1FF0
3C70
3870
00F0
07E0
1FE0
3CE0
70E0
E0E0
E1C0
E7C0
FFC0
79C0
ENDCHAR
STARTCHAR atilde
ENCODING 227
SWIDTH 556 0
DWIDTH 14 0
BBX 12 18 2 0
BITMAP
0F30
1FF0
19E0
0000
07E0
1FF0
3C70
3870
00F0
07E0
1FE0
3CE0
70E0
E0E0
E1C0
E7C0
FFC0
79C0
ENDCHAR
STARTCHAR adieresis
ENCODING 228
SWIDTH 556 0
DWIDTH 14 0
BBX 12 18 2 0
BITMAP
0E70
0E70
0000
0000
07E0
1FF0
3C70
3870
00F0
07E0
1FE0
3CE0
70E0
E0E0
E1C0
E7C0
FFC0
79C0
ENDCHAR
STARTCHAR aring
ENCODING 229
SWIDTH 556 0
DWIDTH 14 0
BBX 12 19 2 0
BITMAP
03C0
0660
0660
0660
03C0
07E0
1FF0
3C70
3870
00F0
07E0
1FE0
3CE0
70E0
E0E0
E1C0
E7C0
FFC0
79C0
ENDCHAR
STARTCHAR ae
ENCODING 230
SWIDTH 889 0
DWIDTH 22 0
BBX 21 14 2 0
BITMAP
07E3E0
1FFFF0
3C7E70
387838
00F038
07F038
1FFFF8
3CFFF0
70E000
E0E000
E1E070
E7F1E0
FF3FC0
7C1F00
ENDCHAR
STARTCHAR ccedilla
ENCODING 231
SWIDTH 556 0
DWIDTH 13 0
BBX 12 19 2 -5
BITMAP
03C0
0FE0
1E70
3830
7000
7000
E000
E000
E000
E000
E0E0
71C0
7F80
3F00
1C00
0E00
6600
7C00
3800
ENDCHAR
STARTCHAR egrave
ENCODING 232
SWIDTH 556 0
DWIDTH 14 0
BBX 13 19 2 0
BITMAP
0E00
0700
0380
01C0
0000
03E0
0FF0
1E70
3838
7038
7038
FFF8
FFF0
E000
E000
E0E0
73C0
7F80
1E00
ENDCHAR
STARTCHAR eacute
ENCODING 233
SWIDTH 556 0
DWIDTH 14 0
BBX 13 19 2 0
BITMAP
0070
00E0
01C0
0380
0000
03E0
0FF0
1E70
3838
7038
7038
FFF8
FFF0
E000
E000
E0E0
73C0
7F80
1E00
ENDCHAR
STARTCHAR ecircumflex
ENCODING 234
SWIDTH 556 0
DWIDTH 14 0
BBX 13 19 2 0
BITMAP
01C0
03E0
0770
0E38
0000
03E0
0FF0
1E70
3838
7038
7038
FFF8
FFF0
E000
E000
E0E0
73C0
7F80
1E00
ENDCHAR
STARTCHAR edieresis
ENCODING 235
SWIDTH 556 0
DWIDTH 14 0
BBX 13 18 2 0
BITMAP
0E70
0E70
0000
0000
03E0
0FF0
1E70
3838
7038
7038
FFF8
FFF0
E000
E000
E0E0
73C0
7F80
1E00
ENDCHAR
STARTCHAR igrave
ENCODING 236
SWIDTH 278 0
DWIDTH 7 0
BBX 6 19 2 0
BITMAP
E0
70
38
1C
00
1C
1C
1C
38
38
38
38
70
70
70
70
E0
E0
E0
ENDCHAR
STARTCHAR iacute
ENCODING 237
SWIDTH 278 0
DWIDTH 7 0
BBX 9 19 2 0
BITMAP
0380
0700
0E00
1C00
0000
1C00
1C00
1C00
3800
3800
3800
3800
7000
7000
7000
7000
E000
E000
E000
ENDCHAR
STARTCHAR icircumflex
ENCODING 238
SWIDTH 278 0
DWIDTH 7 0
BBX 9 19 2 0
BITMAP
1C00
3E00
7700
E380
0000
1C00
1C00
1C00
3800
3800
3800
3800
7000
7000
7000
7000
E000
E000
E000
ENDCHAR
STARTCHAR idieresis
ENCODING 239
SWIDTH 278 0
DWIDTH 7 0
BBX 9 18 2 0
BITMAP
7380
7380
0000
0000
1C00
1C00
1C00
3800
3800
3800
3800
7000
7000
7000
7000
E000
E000
E000
ENDCHAR
STARTCHAR eth
ENCODING 240
SWIDTH 611 0
DWIDTH 14 0
BBX 13 19 2 0
BITMAP
1C00
0F70
03C0
0FC0
18E0
03E0
0FF0
1E70
3838
7038
7038
E038
E038
E070
E070
E0E0
73C0
7F80
1E00
ENDCHAR
STARTCHAR ntilde
ENCODING 241
SWIDTH 611 0
DWIDTH 15 0
BBX 13 18 2 0
BITMAP
0798
0FF8
0CF0
0000
1DE0
1FF0
1E38
3C38
3838
3838
3838
7070
7070
7070
7070
E0E0
E0E0
E0E0
ENDCHAR
STARTCHAR ograve
ENCODING 242
SWIDTH 611 0
DWIDTH 14 0
BBX 13 19 2 0
BITMAP
1C00
0E00
0700
0380
0000
03C0
0FF0
1E70
3838
7038
7038
E038
E038
E070
E070
E0E0
73C0
7F80
1E00
ENDCHAR
STARTCHAR oacute
ENCODING 243
SWIDTH 611 0
DWIDTH 14 0
BBX 13 19 2 0
BITMAP
0070
00E0
01C0
0380
0000
03C0
0FF0
1E70
3838
7038
7038
E038
E038
E070
E070
E0E0
73C0
7F80
1E00
ENDCHAR
STARTCHAR ocircumflex
ENCODING 244
SWIDTH 611 0
DWIDTH 14 0
BBX 13 19 2 0
BITMAP
01C0
03E0
0770
0E38
0000
03C0
0FF0
1E70
3838
7038
7038
E038
E038
E070
E070
E0E0
73C0
7F80
1E00
ENDCHAR
STARTCHAR otilde
ENCODING 245
SWIDTH 611 0
DWIDTH 14 0
BBX 13 18 2 0
BITMAP
0798
0FF8
0CF0
0000
03C0
0FF0
1E70
3838
7038
7038
E038
E038
E070
E070
E0E0
73C0
7F80
1E00
ENDCHAR
STARTCHAR odieresis
ENCODING 246
SWIDTH 611 0
DWIDTH 14 0
BBX 13 18 2 0
BITMAP
0E70
0E70
0000
0000
03C0
0FF0
1E70
3838
7038
7038
E038
E038
E070
E070
E0E0
73C0
7F80
1E00
ENDCHAR
STARTCHAR divide
ENCODING 247
SWIDTH 584 0
DWIDTH 15 0
BBX 10 12 4 1
BITMAP
0E00
0E00
0E00
0000
0000
FFC0
FFC0
0000
0000
3800
3800
3800
ENDCHAR
STARTCHAR oslash
ENCODING 248
SWIDTH 611 0
DWIDTH 14 0
BBX 15 14 1 0
BITMAP
01E6
07FC
0F18
1C3C
386C
30CC
718C
631C
6618
6C38
7870
30E0
7FC0
CF00
ENDCHAR
STARTCHAR ugrave
ENCODING 249
SWIDTH 611 0
DWIDTH 15 0
BBX 13 19 3 0
BITMAP
1C00
0E00
0700
0380
0000
3838
3838
3838
7070
7070
7070
7070
E0E0
E0E0
E1E0
E3E0
E7C0
7DC0
39C0
ENDCHAR
STARTCHAR uacute
ENCODING 250
SWIDTH 611 0
DWIDTH 15 0
BBX 13 19 3 0
BITMAP
0070
00E0
01C0
0380
0000
3838
3838
3838
7070
7070
7070
7070
E0E0
E0E0
E1E0
E3E0
E7C0
7DC0
39C0
ENDCHAR
STARTCHAR ucircumflex
ENCODING 251
SWIDTH 611 0
DWIDTH 15 0
BBX 13 19 3 0
BITMAP
0380
07C0
0EE0
1C70
0000
3838
3838
3838
7070
7070
7070
7070
E0E0
E0E0
E1E0
E3E0
E7C0
7DC0
39C0
ENDCHAR
STARTCHAR udieresis
ENCODING 252
SWIDTH 611 0
DWIDTH 15 0
BBX 13 18 3 0
BITMAP
0E70
0E70
0000
0000
3838
3838
3838
7070
7070
7070
7070
E0E0
E0E0
E1E0
E3E0
E7C0
7DC0
39C0
ENDCHAR
STARTCHAR yacute
ENCODING 253
SWIDTH 556 0
DWIDTH 14 0
BBX 14 24 2 -5
BITMAP
0070
00E0
01C0
0380
0000
701C
701C
7038
7038
3870
3870
38E0
38E0
1DC0
1DC0
1F80
0F00
0F00
0E00
0E00
1C00
3800
F800
F000
ENDCHAR
STARTCHAR thorn
ENCODING 254
SWIDTH 611 0
DWIDTH 15 0
BBX 15 24 1 -5
BITMAP
0700
0700
0700
0700
0E00
0EF0
0FFC
0F9C
1E0E
1C0E
1C0E
380E
380E
381C
381C
3838
7CF0
7FE0
7780
7000
E000
E000
E000
E000
ENDCHAR
STARTCHAR ydieresis
ENCODING 255
SWIDTH 556 0
DWIDTH 15 0
BBX 14 23 3 -5
BITMAP
0E70
0E70
0000
0000
701C
701C
7038
7038
3870
3870
38E0
38E0
1DC0
1DC0
1F80
0F00
0F00
0E00
0E00
1C00
3800
F800
F000
ENDCHAR
STARTCHAR Euro
ENCODING 8364
SWIDTH 722 0
DWIDTH 18 0
BBX 18 19 1 0
BITMAP
007F00
01FF80
03E3C0
0781C0
0E01C0
1E0000
7FE000
7FE000
380000
380000
FFC000
FFC000
380000
380380
3C0780
1C0F00
1E3E00
0FFC00
07F000
ENDCHAR
ENDFONT
