<?xml version="1.0" encoding="UTF-8"?><svg id="Outlined_icons" xmlns="http://www.w3.org/2000/svg" viewBox="0 0 16 16"><path id="iconDesktopApp_New" d="m15,13c0,.28-.22.5-.5.5h-2v2c0,.28-.22.5-.5.5s-.5-.22-.5-.5v-2h-2c-.28,0-.5-.22-.5-.5s.22-.5.5-.5h2v-2c0-.28.22-.5.5-.5s.5.22.5.5v2h2c.28,0,.5.22.5.5Zm-12,2h5v1H3c-1.1,0-2-.9-2-2V2C1,.9,1.9,0,3,0h7c1.14,1.14,2.93,2.93,4,4v5h-1v-4h-2c-1.1,0-2-.9-2-2V1H3c-.55,0-1,.45-1,1v12c0,.55.45,1,1,1ZM10,1.41v1.59c0,.55.45,1,1,1h1.59l-.82-.82-1.76-1.76Z"/></svg>