<?xml version="1.0" encoding="UTF-8"?><svg id="Outlined_icons" xmlns="http://www.w3.org/2000/svg" viewBox="0 0 16 16"><path id="iconDesktopApp_Save" d="m16,11h0V2.29c0-1.26-1.02-2.29-2.29-2.29H2.29C1.02,0,0,1.02,0,2.29v8.71h0v1h0v1.71c0,1.26,1.02,2.29,2.29,2.29h11.43c1.26,0,2.29-1.02,2.29-2.29v-1.71h0v-1ZM5.71,1h5.29v4.5c0,.28-.22.5-.5.5h-5c-.28,0-.5-.22-.5-.5V1h.71ZM1,2.29c0-.71.58-1.29,1.29-1.29h1.71v4.5c0,.83.67,1.5,1.5,1.5h5c.83,0,1.5-.67,1.5-1.5V1h1.71c.71,0,1.29.58,1.29,1.29v8.71H1V2.29Zm14,11.43c0,.71-.58,1.29-1.29,1.29H2.29c-.71,0-1.29-.58-1.29-1.29v-1.71h14v1.71Z"/></svg>