<?xml version="1.0" encoding="UTF-8"?><svg id="Outlined_icons" xmlns="http://www.w3.org/2000/svg" viewBox="0 0 16 16"><path id="iconDesktopApp_Print" d="m14,4h-2v-2c0-1.1-.9-2-2-2h-4c-1.1,0-2,.9-2,2v2h-2c-1.1,0-2,.9-2,2v4c0,1.1.9,2,2,2h2v2c0,1.1.9,2,2,2h4c1.1,0,2-.9,2-2v-2h2c1.1,0,2-.9,2-2v-4c0-1.1-.9-2-2-2ZM5,2c0-.55.45-1,1-1h4c.55,0,1,.45,1,1v2h-6v-2Zm5,13h-4c-.55,0-1-.45-1-1v-5h6v5c0,.55-.45,1-1,1Zm5-5c0,.55-.45,1-1,1h-2v-2h.5c.28,0,.5-.22.5-.5s-.22-.5-.5-.5h-.5s-8,0-8,0h0s-.5,0-.5,0c-.28,0-.5.22-.5.5s.22.5.5.5h.5v2h-2c-.55,0-1-.45-1-1v-4c0-.55.45-1,1-1h12c.55,0,1,.45,1,1v4Zm-5,1.5c0,.28-.22.5-.5.5h-3c-.28,0-.5-.22-.5-.5s.22-.5.5-.5h3c.28,0,.5.22.5.5Zm0,2c0,.28-.22.5-.5.5h-3c-.28,0-.5-.22-.5-.5s.22-.5.5-.5h3c.28,0,.5.22.5.5Z"/></svg>