<?xml version="1.0" encoding="UTF-8"?><svg id="Outlined_icons" xmlns="http://www.w3.org/2000/svg" viewBox="0 0 16 16"><path id="iconDesktopApp_Open" d="m14.5,5h-1.5v-1c0-1.1-.9-2-2-2h-5L4,0h-2C.9,0,0,.9,0,2v12c0,1.1.9,2,2,2h9s0,0,0,0c.12,0,.25-.01.36-.03.98-.16,1.94-.94,2.24-1.87l2.29-7.19c.33-1.05-.29-1.91-1.39-1.91ZM1,14V2c0-.55.45-1,1-1h1.59l1.71,1.71c.19.19.44.29.71.29h5c.55,0,1,.45,1,1v1h-5.5c-1.1,0-2.27.86-2.61,1.91l-2.29,7.19c-.09.28-.11.54-.07.78-.32-.17-.54-.49-.54-.87Zm13.94-7.4l-2.29,7.19c-.2.63-.99,1.21-1.65,1.21H3c-.2,0-.36-.05-.43-.15-.07-.1-.07-.26-.01-.45l2.29-7.19c.2-.63.99-1.21,1.65-1.21h8c.2,0,.36.05.43.15.07.1.07.26.01.45Z"/></svg>