<?xml version="1.0" encoding="UTF-8"?><svg id="Outlined_icons" xmlns="http://www.w3.org/2000/svg" viewBox="0 0 16 16"><path id="iconDesktopApp_Delete" d="m8,0C3.58,0,0,3.58,0,8s3.58,8,8,8,8-3.58,8-8S12.42,0,8,0Zm0,15c-3.86,0-7-3.14-7-7S4.14,1,8,1s7,3.14,7,7-3.14,7-7,7Zm2.83-9.12l-2.12,2.12,2.12,2.12c.2.2.2.51,0,.71-.1.1-.23.15-.35.15s-.26-.05-.35-.15l-2.12-2.12-2.12,2.12c-.1.1-.23.15-.35.15s-.26-.05-.35-.15c-.2-.2-.2-.51,0-.71l2.12-2.12-2.12-2.12c-.2-.2-.2-.51,0-.71s.51-.2.71,0l2.12,2.12,2.12-2.12c.2-.2.51-.2.71,0s.2.51,0,.71Z"/></svg>