<?xml version="1.0" encoding="UTF-8"?><svg id="Outlined_icons" xmlns="http://www.w3.org/2000/svg" viewBox="0 0 16 16"><path id="iconDesktopApp_Cut" d="m15.22,12.05l-7.39-3.55,7.39-3.55c.25-.12.35-.42.23-.67-.12-.25-.42-.35-.67-.23l-8.12,3.9-2.48-1.19c1.07-.46,1.81-1.52,1.81-2.75,0-1.66-1.34-3-3-3S0,2.34,0,4c0,1.28.81,2.36,1.93,2.8.1.05.22.1.35.15l3.23,1.55-3.23,1.55c-.1.05-.18.09-.26.13-1.18.41-2.02,1.51-2.02,2.82,0,1.66,1.34,3,3,3s3-1.34,3-3c0-1.24-.75-2.29-1.81-2.75l2.48-1.19,8.12,3.9c.07.03.14.05.22.05.19,0,.37-.1.45-.28.12-.25.01-.55-.23-.67ZM3,2c1.1,0,2,.9,2,2s-.9,2-2,2-2-.9-2-2,.9-2,2-2Zm2,11c0,1.1-.9,2-2,2s-2-.9-2-2,.9-2,2-2,2,.9,2,2Z"/></svg>