<?xml version="1.0" encoding="UTF-8"?><svg id="Outlined_icons" xmlns="http://www.w3.org/2000/svg" viewBox="0 0 16 16"><path id="iconDesktopApp_Paste" d="m14.09,6.09c-.71-.74-1.44-1.5-2.09-2.09h-3.78c-1.23,0-2.22.9-2.22,2v8c0,1.1.99,2,2.22,2h5.56c1.23,0,2.22-.9,2.22-2v-6c-.52-.52-1.21-1.21-1.91-1.91Zm-2.09-.68l1.38,1.38c.41.43.8.83,1.18,1.21h-1.56c-.55,0-1-.45-1-1v-1.59Zm3,5.59v3c0,.55-.55,1-1.22,1h-5.56c-.67,0-1.22-.45-1.22-1V6c0-.55.55-1,1.22-1h2.78v2c0,1.1.9,2,2,2h2v2Zm-6.5,0h5c.28,0,.5.22.5.5s-.22.5-.5.5h-5c-.28,0-.5-.22-.5-.5s.22-.5.5-.5ZM5.5,3h1c.83,0,1.5-.67,1.5-1.5v-.5h2c.55,0,1,.45,1,1v1h1v-1C12,.9,11.1,0,10,0h-2s-4,0-4,0h0s-2,0-2,0C.9,0,0,.9,0,2v10c0,1.1.9,2,2,2h3v-1h-3c-.55,0-1-.45-1-1V2c0-.55.45-1,1-1h2v.5c0,.83.67,1.5,1.5,1.5Zm1.5-1.5c0,.28-.22.5-.5.5h-1c-.28,0-.5-.22-.5-.5v-.5h2v.5Zm7,12c0,.28-.22.5-.5.5h-5c-.28,0-.5-.22-.5-.5s.22-.5.5-.5h5c.28,0,.5.22.5.5Z"/></svg>