<?xml version="1.0" encoding="UTF-8"?><svg id="Outlined_icons" xmlns="http://www.w3.org/2000/svg" viewBox="0 0 16 16"><path id="iconDesktopApp_Copy" d="m12,0h-5c-1.1,0-2,.9-2,2h1c0-.55.45-1,1-1h4v2c0,1.1.9,2,2,2h2v6c0,.55-.45,1-1,1h-2v1h2c1.1,0,2-.9,2-2v-7c-1.07-1.07-2.86-2.86-4-4Zm1,4c-.55,0-1-.45-1-1v-1.59l1.29,1.29,1.29,1.29h-1.59Zm-6-1H2c-1.1,0-2,.9-2,2v9c0,1.1.9,2,2,2h7c1.1,0,2-.9,2-2v-7c-1.07-1.07-2.86-2.86-4-4Zm3,6v5c0,.55-.45,1-1,1H2c-.55,0-1-.45-1-1V5c0-.55.45-1,1-1h4v2c0,1.1.9,2,2,2h2v1Zm-2-2c-.55,0-1-.45-1-1v-1.59l1.29,1.29,1.29,1.29h-1.59Z"/></svg>