<?xml version="1.0" encoding="UTF-8"?><svg id="Outlined_icons" xmlns="http://www.w3.org/2000/svg" viewBox="0 0 16 16"><path id="iconTextEditor_alignCenter" d="m15.5,8H.5c-.28,0-.5-.22-.5-.5h0c0-.28.22-.5.5-.5h15c.28,0,.5.22.5.5h0c0,.28-.22.5-.5.5Zm-2,3.5h0c0-.28-.22-.5-.5-.5H3c-.28,0-.5.22-.5.5h0c0,.28.22.5.5.5h10c.28,0,.5-.22.5-.5Zm2.5,4h0c0-.28-.22-.5-.5-.5H.5c-.28,0-.5.22-.5.5h0c0,.28.22.5.5.5h15c.28,0,.5-.22.5-.5Zm-2.5-12h0c0-.28-.22-.5-.5-.5H3c-.28,0-.5.22-.5.5h0c0,.28.22.5.5.5h10c.28,0,.5-.22.5-.5Z"/></svg>