<?xml version="1.0" encoding="UTF-8"?><svg id="Outlined_icons" xmlns="http://www.w3.org/2000/svg" viewBox="0 0 16 16"><path id="iconTextEditor_Bold" d="m12.06,7.75c.65-.36,1.13-.81,1.44-1.35.3-.55.46-1.29.46-2.24,0-1.45-.4-2.5-1.21-3.16-.81-.66-2.03-.99-3.67-.99H3v16h6.26c3.39,0,5.09-1.51,5.09-4.53,0-1.88-.76-3.12-2.29-3.71ZM5.59,2.24h3.34c1.59,0,2.38.74,2.38,2.22,0,1.57-.76,2.36-2.29,2.36h-3.43V2.24Zm5.45,10.98c-.43.36-1.07.54-1.93.54h-3.53v-4.74h3.48c.75,0,1.37.17,1.87.53.5.35.75.96.75,1.83s-.21,1.49-.64,1.85Z"/></svg>