<?xml version="1.0" encoding="utf-8"?>
<!-- Generator: Adobe Illustrator 22.0.1, SVG Export Plug-In . SVG Version: 6.00 Build 0)  -->
<svg version="1.1" id="Layer_1" xmlns="http://www.w3.org/2000/svg" xmlns:xlink="http://www.w3.org/1999/xlink" x="0px" y="0px"
	 width="22px" height="22px" viewBox="0 0 22 22" style="enable-background:new 0 0 22 22;" xml:space="preserve">
<style type="text/css">
	.st0{fill:#FACE20;}
	.st1{fill:none;}
	.st2{fill:#353637;}
</style>
<g>
	<polygon class="st0" points="8,13 2.7,18 2,18 2,17 7,12 17,12 17,9 8,9 6,7 0,7 0,16 0,20 1,20 2,20 4,20 15,20 21,13 	"/>
	<rect class="st1" width="22" height="22"/>
	<g>
		<path class="st2" d="M19.4,9.9l-0.7-0.7C18.9,8.6,19,8.1,19,7.5c0-2.2-1.8-4-4-4c-0.9,0-1.7,0.3-2.4,0.8l-0.7-0.7
			c0.9-0.7,1.9-1.1,3.1-1.1c2.8,0,5,2.2,5,5C20,8.4,19.8,9.2,19.4,9.9z"/>
		<polygon class="st2" points="17,7.5 22,7.5 19.5,10 		"/>
	</g>
</g>
</svg>
