<?xml version="1.0" encoding="utf-8"?>
<!-- Generator: Adobe Illustrator 22.0.1, SVG Export Plug-In . SVG Version: 6.00 Build 0)  -->
<svg version="1.1" id="Layer_1" xmlns="http://www.w3.org/2000/svg" xmlns:xlink="http://www.w3.org/1999/xlink" x="0px" y="0px"
	 width="16px" height="16px" viewBox="0 0 16 16" style="enable-background:new 0 0 16 16;" xml:space="preserve">
<style type="text/css">
	.st0{fill:#FACE20;}
	.st1{fill:#FFFFFF;}
	.st2{fill:#353637;}
	.st3{fill:none;}
</style>
<g>
	<polygon class="st0" points="13,8 15,16 16,16 16,5 7,5 6,4 2,4 2,8 	"/>
	<g>
		<g>
			<polygon class="st1" points="2.5,13.5 2.5,3.5 6.8,3.5 9.5,6.2 9.5,13.5 			"/>
			<path class="st2" d="M6.6,4L9,6.4V13H3V4H6.6 M7,3H2v11h8V6L7,3L7,3z"/>
		</g>
		<g>
			<polygon class="st2" points="9,7 6,7 6,4 7,4 7,6 9,6 			"/>
		</g>
	</g>
	<polygon class="st0" points="12,9 13.3,14 16,14 16,16 10,16 2,16 0,9 	"/>
	<g>
		<rect class="st3" width="16" height="16"/>
	</g>
</g>
</svg>
