<?xml version="1.0" encoding="utf-8"?>
<!-- Generator: Adobe Illustrator 22.0.1, SVG Export Plug-In . SVG Version: 6.00 Build 0)  -->
<svg version="1.1" id="Layer_1" xmlns="http://www.w3.org/2000/svg" xmlns:xlink="http://www.w3.org/1999/xlink" x="0px" y="0px"
	 width="16px" height="16px" viewBox="0 0 16 16" style="enable-background:new 0 0 16 16;" xml:space="preserve">
<style type="text/css">
	.st0{fill:#FACE20;}
	.st1{fill:#FFFFFF;}
	.st2{fill:#353637;}
	.st3{fill:none;}
</style>
<g>
	<polygon class="st0" points="13,8 15,16 16,16 16,5 7,5 6,4 2,4 2,8 	"/>
	<g>
		<g>
			<polygon class="st1" points="6.5,13.5 6.5,2.5 11.8,2.5 15.5,6.2 15.5,13.5 			"/>
			<path class="st2" d="M11.6,3L15,6.4V13H7V3H11.6 M12,2H6v12h10V6L12,2L12,2z"/>
		</g>
		<g>
			<polygon class="st2" points="15,7 11,7 11,3 12,3 12,6 15,6 			"/>
		</g>
	</g>
	<polygon class="st0" points="12,9 13.3,14 16,14 16,16 9,16 2,16 0,9 	"/>
	<g>
		<rect class="st3" width="16" height="16"/>
	</g>
</g>
</svg>
