<?xml version="1.0" encoding="utf-8"?>
<!-- Generator: Adobe Illustrator 22.0.1, SVG Export Plug-In . SVG Version: 6.00 Build 0)  -->
<svg version="1.1" id="Layer_1" xmlns="http://www.w3.org/2000/svg" xmlns:xlink="http://www.w3.org/1999/xlink" x="0px" y="0px"
	 width="10px" height="10px" viewBox="0 0 10 10" style="enable-background:new 0 0 10 10;" xml:space="preserve">
<style type="text/css">
	.st0{fill:#353637;}
	.st1{fill:none;}
</style>
<g>
	<g>
		<path class="st0" d="M5.8,9.7C5.6,9.9,5.4,10,5.1,10C5,10,4.8,10,4.7,9.9C4.6,9.9,4.5,9.8,4.4,9.7C4.3,9.6,4.2,9.5,4.1,9.4
			C4.1,9.3,4,9.1,4,9c0-0.3,0.1-0.5,0.3-0.7C4.6,8.1,4.8,8,5.1,8c0.3,0,0.5,0.1,0.7,0.3C6,8.5,6.1,8.7,6.1,9C6.1,9.3,6,9.5,5.8,9.7z
			"/>
		<path class="st0" d="M7.8,3.4C7.7,3.6,7.6,3.8,7.5,4C7.3,4.2,7.2,4.3,7,4.5C6.8,4.7,6.6,4.8,6.4,5C6.3,5.1,6.2,5.2,6.1,5.3
			C6,5.4,6,5.5,5.9,5.6C5.8,5.7,5.8,5.8,5.8,5.9c0,0.1,0,0.3,0,0.4v0.5H4.1V6.1c0-0.2,0-0.4,0-0.5c0-0.1,0.1-0.3,0.1-0.4
			C4.4,5.1,4.4,5,4.5,4.9c0.1-0.1,0.2-0.2,0.3-0.4l1-1C6.1,3.3,6.2,3,6.2,2.7c0-0.3-0.1-0.6-0.3-0.8C5.7,1.6,5.4,1.5,5,1.5
			c-0.4,0-0.7,0.1-0.9,0.4C3.9,2.1,3.7,2.4,3.7,2.8L2,2.7c0.1-0.4,0.2-0.8,0.3-1.1C2.5,1.2,2.7,0.9,3,0.7c0.3-0.2,0.6-0.4,0.9-0.5
			S4.7,0,5.1,0c0.4,0,0.8,0.1,1.1,0.2c0.3,0.1,0.6,0.3,0.9,0.5c0.3,0.2,0.4,0.5,0.6,0.8c0.1,0.3,0.2,0.7,0.2,1.1
			C7.9,2.9,7.8,3.1,7.8,3.4z"/>
	</g>
	<g>
		<rect class="st1" width="10" height="10"/>
	</g>
</g>
</svg>
