<?xml version="1.0" encoding="utf-8"?>
<!-- Generator: Adobe Illustrator 22.0.1, SVG Export Plug-In . SVG Version: 6.00 Build 0)  -->
<svg version="1.1" id="Layer_1" xmlns="http://www.w3.org/2000/svg" xmlns:xlink="http://www.w3.org/1999/xlink" x="0px" y="0px"
	 width="16px" height="16px" viewBox="0 0 16 16" style="enable-background:new 0 0 16 16;" xml:space="preserve">
<style type="text/css">
	.st0{fill:#41CD52;}
	.st1{fill:#FFFFFF;}
	.st2{fill:none;}
</style>
<g>
	<g>
		<polygon class="st0" points="2.2,2 2.2,2 0,4.2 0,14 13.8,14 16,11.8 16,2 		"/>
		<path class="st1" d="M6,11.3c-1.1,0-1.8-0.3-2.2-0.9C3.3,9.9,3.1,9,3.1,7.8c0-1.2,0.2-2.1,0.6-2.7S4.9,4.2,6,4.2
			c1,0,1.8,0.3,2.2,0.9c0.4,0.6,0.6,1.5,0.6,2.7c0,0.8-0.1,1.5-0.3,2c-0.2,0.5-0.5,0.9-0.8,1.1l0.9,1.4l-1,0.5l-0.9-1.5
			C6.4,11.3,6.2,11.3,6,11.3z M4.6,9.8c0.2,0.4,0.7,0.6,1.3,0.6S7,10.2,7.3,9.8c0.2-0.4,0.3-1,0.3-2c0-0.9-0.1-1.6-0.3-2
			S6.6,5.2,6,5.2c-0.6,0-1.1,0.2-1.3,0.6c-0.2,0.4-0.4,1.1-0.4,2C4.3,8.7,4.4,9.4,4.6,9.8z"/>
		<path class="st1" d="M12.7,7h-1.4v2.2c0,0.4,0,0.7,0.1,0.8c0.1,0.1,0.2,0.2,0.5,0.2l0.8,0l0,0.9c-0.5,0.1-0.8,0.1-1,0.1
			c-0.6,0-1-0.1-1.2-0.4s-0.3-0.8-0.3-1.5V7H9.4V6h0.8V4.6h1.1V6h1.4L12.7,7L12.7,7z"/>
	</g>
	<rect class="st2" width="16" height="16"/>
</g>
</svg>
