<svg width="24" height="24" viewBox="0 0 24 24" fill="none" xmlns="http://www.w3.org/2000/svg">
<path fill-rule="evenodd" clip-rule="evenodd" d="M12 4C16.4183 4 20 7.58172 20 12C20 16.4183 16.4183 20 12 20C7.58172 20 4 16.4183 4 12C4 7.58172 7.58172 4 12 4ZM12 2C17.5228 2 22 6.47715 22 12C22 17.5228 17.5228 22 12 22C6.47715 22 2 17.5228 2 12C2 6.47715 6.47715 2 12 2Z" fill="#0D0D0D"/>
<path fill-rule="evenodd" clip-rule="evenodd" d="M11.8735 14C11.4243 14 11.0305 13.6404 11.0859 13.1913C11.1218 12.9004 11.1938 12.7598 11.2726 12.6061C11.2846 12.5827 11.2968 12.559 11.309 12.5344C11.4537 12.2427 11.8446 11.8125 12.4814 11.2438C12.742 11.025 12.9591 10.788 13.1328 10.5328C13.3065 10.2776 13.3933 10.0042 13.3933 9.7125C13.3933 9.40625 13.2775 9.12552 13.0459 8.87031C12.8143 8.6151 12.467 8.4875 12.0038 8.4875C11.4827 8.4875 11.0955 8.64062 10.8422 8.94687C10.7885 9.0118 10.7473 9.09933 10.7158 9.19697C10.5687 9.65217 10.2209 10.0625 9.74577 10.0625C9.26613 10.0625 8.88562 9.66512 9.03161 9.20479C9.18688 8.71516 9.47937 8.13493 9.99543 7.65625C10.5093 7.21875 11.1787 7 12.0038 7C12.8143 7 13.5164 7.21875 14.1098 7.65625C14.7033 8.09375 15 8.72083 15 9.5375C15 10.0188 14.8914 10.4307 14.6743 10.7734C14.4572 11.1161 14.1605 11.4771 13.7841 11.8562C13.2775 12.3375 12.9699 12.7167 12.8614 12.9938C12.834 13.0635 12.8088 13.1315 12.7863 13.2017C12.65 13.6271 12.3172 14 11.8735 14ZM12 15C12.5523 15 13 15.4477 13 16C13 16.5523 12.5523 17 12 17C11.4477 17 11 16.5523 11 16C11 15.4477 11.4477 15 12 15Z" fill="#0D0D0D"/>
</svg>
