<svg width="24" height="24" viewBox="0 0 24 24" fill="none" xmlns="http://www.w3.org/2000/svg">
<g id="File /download_arrow_down">
<path id="Layer01" fill-rule="evenodd" clip-rule="evenodd" d="M3 21C3 20.4477 3.44772 20 4 20H20C20.5523 20 21 20.4477 21 21C21 21.5523 20.5523 22 20 22H4C3.44772 22 3 21.5523 3 21Z" fill="#0D0D0D"/>
<path id="Layer02" fill-rule="evenodd" clip-rule="evenodd" d="M12.7071 16.7071C12.3166 17.0976 11.6834 17.0976 11.2929 16.7071L7.93679 13.351C7.54626 12.9605 7.54626 12.3273 7.93679 11.9368C8.32731 11.5463 8.96047 11.5463 9.351 11.9368L11 13.5858L11 3.27208C11 2.71979 11.4477 2.27208 12 2.27208C12.5523 2.27208 13 2.71979 13 3.27208L13 13.5858L14.649 11.9368C15.0395 11.5463 15.6727 11.5463 16.0632 11.9368C16.4537 12.3273 16.4537 12.9605 16.0632 13.351L12.7071 16.7071Z" fill="#0D0D0D"/>
</g>
</svg>
