<svg width="24" height="24" viewBox="0 0 24 24" fill="none" xmlns="http://www.w3.org/2000/svg">
<path fill-rule="evenodd" clip-rule="evenodd" d="M12 4C16.4183 4 20 7.58172 20 12C20 16.4183 16.4183 20 12 20C7.58172 20 4 16.4183 4 12C4 7.58172 7.58172 4 12 4ZM12 2C17.5228 2 22 6.47715 22 12C22 17.5228 17.5228 22 12 22C6.47715 22 2 17.5228 2 12C2 6.47715 6.47715 2 12 2Z" fill="#0D0D0D"/>
<path fill-rule="evenodd" clip-rule="evenodd" d="M8.4644 15.5355C8.07388 15.145 8.07388 14.5118 8.4644 14.1213L10.5857 12L8.46444 9.87868C8.07392 9.48815 8.07392 8.85499 8.46444 8.46446C8.85496 8.07394 9.48813 8.07394 9.87865 8.46446L12 10.5858L14.1213 8.46446C14.5118 8.07394 15.1449 8.07394 15.5355 8.46446C15.926 8.85499 15.926 9.48815 15.5355 9.87868L13.4142 12L15.5355 14.1213C15.926 14.5118 15.926 15.145 15.5355 15.5355C15.145 15.9261 14.5118 15.9261 14.1213 15.5355L12 13.4142L9.87862 15.5355C9.48809 15.9261 8.85493 15.9261 8.4644 15.5355Z" fill="#0D0D0D"/>
</svg>
