<svg width="128" height="128" viewBox="0 0 1024 1024" fill="none" xmlns="http://www.w3.org/2000/svg">
<g id="App Icon-Apple-1">
<rect id="App Icon Bg" x="62" y="62" width="900" height="900" rx="180" fill="url(#paint0_linear_1432_187)"/>
<g id="torrent client">
<g id="laptop_mac">
<mask id="mask0_1432_187" style="mask-type:alpha" maskUnits="userSpaceOnUse" x="122" y="344" width="176" height="176">
<rect id="Bounding box" x="122" y="344" width="176" height="176" fill="#D9D9D9"/>
</mask>
<g mask="url(#mask0_1432_187)">
<path id="laptop_mac_2" d="M136.667 490.667C132.633 490.667 129.181 489.231 126.308 486.358C123.436 483.486 122 480.033 122 476H151.333C147.3 476 143.847 474.564 140.975 471.692C138.103 468.819 136.667 465.367 136.667 461.333V380.667C136.667 376.633 138.103 373.181 140.975 370.308C143.847 367.436 147.3 366 151.333 366H268.667C272.7 366 276.153 367.436 279.025 370.308C281.897 373.181 283.333 376.633 283.333 380.667V461.333C283.333 465.367 281.897 468.819 279.025 471.692C276.153 474.564 272.7 476 268.667 476H298C298 480.033 296.564 483.486 293.692 486.358C290.819 489.231 287.367 490.667 283.333 490.667H136.667ZM210 483.333C212.078 483.333 213.819 482.631 215.225 481.225C216.631 479.819 217.333 478.078 217.333 476C217.333 473.922 216.631 472.181 215.225 470.775C213.819 469.369 212.078 468.667 210 468.667C207.922 468.667 206.181 469.369 204.775 470.775C203.369 472.181 202.667 473.922 202.667 476C202.667 478.078 203.369 479.819 204.775 481.225C206.181 482.631 207.922 483.333 210 483.333ZM151.333 461.333H268.667V380.667H151.333V461.333Z" fill="white"/>
</g>
</g>
<g id="laptop_mac_3">
<mask id="mask1_1432_187" style="mask-type:alpha" maskUnits="userSpaceOnUse" x="726" y="344" width="176" height="176">
<rect id="Bounding box_2" x="726" y="344" width="176" height="176" fill="#D9D9D9"/>
</mask>
<g mask="url(#mask1_1432_187)">
<path id="laptop_mac_4" d="M740.667 490.667C736.633 490.667 733.181 489.231 730.308 486.358C727.436 483.486 726 480.033 726 476H755.333C751.3 476 747.847 474.564 744.975 471.692C742.103 468.819 740.667 465.367 740.667 461.333V380.667C740.667 376.633 742.103 373.181 744.975 370.308C747.847 367.436 751.3 366 755.333 366H872.667C876.7 366 880.153 367.436 883.025 370.308C885.897 373.181 887.333 376.633 887.333 380.667V461.333C887.333 465.367 885.897 468.819 883.025 471.692C880.153 474.564 876.7 476 872.667 476H902C902 480.033 900.564 483.486 897.692 486.358C894.819 489.231 891.367 490.667 887.333 490.667H740.667ZM814 483.333C816.078 483.333 817.819 482.631 819.225 481.225C820.631 479.819 821.333 478.078 821.333 476C821.333 473.922 820.631 472.181 819.225 470.775C817.819 469.369 816.078 468.667 814 468.667C811.922 468.667 810.181 469.369 808.775 470.775C807.369 472.181 806.667 473.922 806.667 476C806.667 478.078 807.369 479.819 808.775 481.225C810.181 482.631 811.922 483.333 814 483.333ZM755.333 461.333H872.667V380.667H755.333V461.333Z" fill="white"/>
</g>
</g>
<g id="laptop_mac_5">
<mask id="mask2_1432_187" style="mask-type:alpha" maskUnits="userSpaceOnUse" x="248" y="682" width="176" height="176">
<rect id="Bounding box_3" x="248" y="682" width="176" height="176" fill="#D9D9D9"/>
</mask>
<g mask="url(#mask2_1432_187)">
<path id="laptop_mac_6" d="M262.667 828.667C258.633 828.667 255.181 827.231 252.308 824.358C249.436 821.486 248 818.033 248 814H277.333C273.3 814 269.847 812.564 266.975 809.692C264.103 806.819 262.667 803.367 262.667 799.333V718.667C262.667 714.633 264.103 711.181 266.975 708.308C269.847 705.436 273.3 704 277.333 704H394.667C398.7 704 402.153 705.436 405.025 708.308C407.897 711.181 409.333 714.633 409.333 718.667V799.333C409.333 803.367 407.897 806.819 405.025 809.692C402.153 812.564 398.7 814 394.667 814H424C424 818.033 422.564 821.486 419.692 824.358C416.819 827.231 413.367 828.667 409.333 828.667H262.667ZM336 821.333C338.078 821.333 339.819 820.631 341.225 819.225C342.631 817.819 343.333 816.078 343.333 814C343.333 811.922 342.631 810.181 341.225 808.775C339.819 807.369 338.078 806.667 336 806.667C333.922 806.667 332.181 807.369 330.775 808.775C329.369 810.181 328.667 811.922 328.667 814C328.667 816.078 329.369 817.819 330.775 819.225C332.181 820.631 333.922 821.333 336 821.333ZM277.333 799.333H394.667V718.667H277.333V799.333Z" fill="white"/>
</g>
</g>
<g id="laptop_mac_7">
<mask id="mask3_1432_187" style="mask-type:alpha" maskUnits="userSpaceOnUse" x="600" y="682" width="176" height="176">
<rect id="Bounding box_4" x="600" y="682" width="176" height="176" fill="#D9D9D9"/>
</mask>
<g mask="url(#mask3_1432_187)">
<path id="laptop_mac_8" d="M614.667 828.667C610.633 828.667 607.181 827.231 604.308 824.358C601.436 821.486 600 818.033 600 814H629.333C625.3 814 621.847 812.564 618.975 809.692C616.103 806.819 614.667 803.367 614.667 799.333V718.667C614.667 714.633 616.103 711.181 618.975 708.308C621.847 705.436 625.3 704 629.333 704H746.667C750.7 704 754.153 705.436 757.025 708.308C759.897 711.181 761.333 714.633 761.333 718.667V799.333C761.333 803.367 759.897 806.819 757.025 809.692C754.153 812.564 750.7 814 746.667 814H776C776 818.033 774.564 821.486 771.692 824.358C768.819 827.231 765.367 828.667 761.333 828.667H614.667ZM688 821.333C690.078 821.333 691.819 820.631 693.225 819.225C694.631 817.819 695.333 816.078 695.333 814C695.333 811.922 694.631 810.181 693.225 808.775C691.819 807.369 690.078 806.667 688 806.667C685.922 806.667 684.181 807.369 682.775 808.775C681.369 810.181 680.667 811.922 680.667 814C680.667 816.078 681.369 817.819 682.775 819.225C684.181 820.631 685.922 821.333 688 821.333ZM629.333 799.333H746.667V718.667H629.333V799.333Z" fill="white"/>
</g>
</g>
<g id="laptop_mac_9">
<mask id="mask4_1432_187" style="mask-type:alpha" maskUnits="userSpaceOnUse" x="424" y="130" width="176" height="176">
<rect id="Bounding box_5" x="424" y="130" width="176" height="176" fill="#D9D9D9"/>
</mask>
<g mask="url(#mask4_1432_187)">
<path id="laptop_mac_10" d="M438.667 276.667C434.633 276.667 431.181 275.231 428.308 272.358C425.436 269.486 424 266.033 424 262H453.333C449.3 262 445.847 260.564 442.975 257.692C440.103 254.819 438.667 251.367 438.667 247.333V166.667C438.667 162.633 440.103 159.181 442.975 156.308C445.847 153.436 449.3 152 453.333 152H570.667C574.7 152 578.153 153.436 581.025 156.308C583.897 159.181 585.333 162.633 585.333 166.667V247.333C585.333 251.367 583.897 254.819 581.025 257.692C578.153 260.564 574.7 262 570.667 262H600C600 266.033 598.564 269.486 595.692 272.358C592.819 275.231 589.367 276.667 585.333 276.667H438.667ZM512 269.333C514.078 269.333 515.819 268.631 517.225 267.225C518.631 265.819 519.333 264.078 519.333 262C519.333 259.922 518.631 258.181 517.225 256.775C515.819 255.369 514.078 254.667 512 254.667C509.922 254.667 508.181 255.369 506.775 256.775C505.369 258.181 504.667 259.922 504.667 262C504.667 264.078 505.369 265.819 506.775 267.225C508.181 268.631 509.922 269.333 512 269.333ZM453.333 247.333H570.667V166.667H453.333V247.333Z" fill="white"/>
</g>
</g>
<path id="netweork-big" fill-rule="evenodd" clip-rule="evenodd" d="M268.007 342C302.498 294.803 350.351 257.989 406 237.126V264.006C364.55 281.188 328.176 308.144 299.754 342H268.007ZM724.246 342C695.824 308.144 659.45 281.188 618 264.006V237.126C673.649 257.989 721.502 294.803 755.993 342H724.246ZM789 520C789 576.131 772.304 628.363 743.608 672H773.017C799.072 627.355 814 575.421 814 520H789ZM512 797C534.744 797 556.848 794.259 578 789.089V814.766C556.757 819.502 534.67 822 512 822C489.33 822 467.243 819.502 446 814.766V789.089C467.152 794.259 489.256 797 512 797ZM280.392 672C251.696 628.363 235 576.131 235 520H210C210 575.421 224.928 627.355 250.983 672H280.392Z" fill="white"/>
<g id="network">
<path id="Vector 6" d="M512.222 357.923L602.289 630.013C602.596 630.939 601.531 631.711 600.746 631.132L369.446 460.491C368.67 459.918 369.075 458.686 370.04 458.686H653.981C654.944 458.686 655.35 459.914 654.578 460.489L425.204 631.145C424.425 631.725 423.36 630.965 423.655 630.04L510.319 357.934C510.613 357.011 511.917 357.004 512.222 357.923Z" stroke="white" stroke-width="10"/>
<circle id="Ellipse 3" cx="512" cy="355" r="22" fill="white"/>
<circle id="Ellipse 4" cx="366" cy="461" r="22" fill="white"/>
<circle id="Ellipse 5" cx="658" cy="461" r="22" fill="white"/>
<circle id="Ellipse 6" cx="423" cy="633" r="22" fill="white"/>
<circle id="Ellipse 7" cx="600" cy="633" r="22" fill="white"/>
</g>
</g>
</g>
<defs>
<linearGradient id="paint0_linear_1432_187" x1="131.231" y1="96.0541" x2="967.084" y2="893.654" gradientUnits="userSpaceOnUse">
<stop stop-color="#00414A"/>
<stop offset="1" stop-color="#0C1C1F"/>
</linearGradient>
</defs>
</svg>
