<svg width="24" height="24" viewBox="0 0 24 24" fill="none" xmlns="http://www.w3.org/2000/svg">
<g id="Player / pause-symbol">
<path id="Layer01" fill-rule="evenodd" clip-rule="evenodd" d="M8 7C8 6.44772 8.33579 6 8.75 6H10.25C10.6642 6 11 6.44772 11 7V17C11 17.5523 10.6642 18 10.25 18H8.75C8.33579 18 8 17.5523 8 17V7Z" fill="#0D0D0D"/>
<path id="Layer02" fill-rule="evenodd" clip-rule="evenodd" d="M13 7C13 6.44772 13.3358 6 13.75 6H15.25C15.6642 6 16 6.44772 16 7V17C16 17.5523 15.6642 18 15.25 18H13.75C13.3358 18 13 17.5523 13 17V7Z" fill="#0D0D0D"/>
</g>
</svg>
